<?xml version="1.0" encoding="utf-8"?>
<!-- Generator: Adobe Illustrator 27.5.0, SVG Export Plug-In . SVG Version: 6.00 Build 0)  -->
<svg version="1.1" xmlns="http://www.w3.org/2000/svg" xmlns:xlink="http://www.w3.org/1999/xlink" x="0px" y="0px"
	 viewBox="0 0 500 500" style="enable-background:new 0 0 500 500;" xml:space="preserve">
<g id="BACKGROUNDS">
	<rect style="fill:#FFFFFF;" width="500" height="500"/>
</g>
<g id="OBJECTS">
	<g id="Layer_14">
		<g>
			<path style="fill:#FFEED9;" d="M277.4,246.6c-1.3-0.8-3-0.1-3.8,1.3c-0.7,1.3-0.5,3.1,0.2,4.4c0.8,1.3,2,2.3,3.3,3
				c1.4,0.8,2.9,1.3,4.4,1.2c3.1-0.3,5.3-4,4.4-7.1C285,246.3,281.1,244.7,277.4,246.6z"/>
			<path style="fill:#FFEED9;" d="M303.5,230.4c-2.7,0.6-5.4,1.3-7.7,2.8c-2.3,1.5-4.2,4.1-4.3,6.9c-0.1,2.3,1,4.5,2.6,6.1
				c1.6,1.6,3.6,2.6,5.6,3.4c4.4,1.7,9.4,2.2,13.5,0.1c4.2-2.1,7-7.5,5.4-12.1c-1-2.8-3.3-4.8-5.9-5.9
				C310.1,230.7,307.3,230.4,303.5,230.4z"/>
			<path style="fill:#FFEED9;" d="M326.2,227.4c-4.4,0.1-9,0.2-13.1-1.7c-4.1-1.9-7.7-6.3-7.8-11.5c-0.1-4,1.9-7.7,4.4-10.5
				c4.9-5.5,11.8-8.3,18.5-7.4c6.7,0.9,13,5.5,16.6,12.1c1.9,3.4,3.1,7.7,2.2,11.6c-1,4.3-4.5,7.3-8.2,8.4
				C335.2,229.6,331.4,229.2,326.2,227.4z"/>
			<path style="fill:#FFEED9;" d="M337.5,193.2c-24.2-12.2-61.9-10.9-83.2-26.7s-34.6-39.6-35.8-64.1c-1-21.2,7.8-43.7,27.3-56.2
				c13.9-9,31.6-12,48.7-13.6c36-3.3,73.5-0.9,106.4,12.2s60.9,38.3,69.4,69.2c4.4,16.1,3.5,33,1.3,49.4c-3,22.2-10,46.1-30.4,59.4
				c-18.2,11.9-44.1,12.3-64.8,3.9C355.8,218.6,354.7,201.9,337.5,193.2z"/>
		</g>
	</g>
	<g id="Layer_19">
		<g>
			<path style="fill:#FFC782;" d="M68.1,327.6c38.1,2.9,87.7-4.6,125.8-7.6c1.5-64.6,0.8-99.4,1.4-161.5
				c-22.7-11.6-71.4,0.1-108.1-2.4c-8.4,9.3-18.3,23.4-25.9,34.8C66.8,242.5,62.6,275.9,68.1,327.6z"/>
			<path style="fill:#002B5C;" d="M87.2,156.1c2.4,18,5.2,36.3,7.6,54.3c-10.4-3.3-16.9-18.5-33.4-20
				C59.4,190.2,86.3,157.5,87.2,156.1z"/>
			<path style="fill:#E13F3D;" d="M87.2,156.1c2.4,12,15.2,22.5,17.6,34.5c-36.5-7.7-43.9,1.2-42.9-1.6
				C62.2,188,79.3,160,87.2,156.1z"/>
			<path style="fill:#FFFFFF;" d="M112.8,228.5c-2.1-13.7-2.5-27.6-1.1-41.4c0.4-3.8,1-7.9,3.4-10.9c3.9-4.8,11-5.4,17.3-5.5
				c10.6-0.2,21.2-0.4,31.7-0.7c5.1-0.1,10.8,0.1,14.3,3.8c3.1,3.4,3.2,8.5,3.1,13c-0.2,9-0.4,18.1-0.7,27.1
				c-0.1,3.6-0.3,7.4-2.7,10c-2.1,2.3-5.4,3-8.5,3.5c-11.1,1.9-22.2,3.5-33.4,4.6C128.1,233,118.7,233.2,112.8,228.5z"/>
			<path style="fill:#FFFFFF;" d="M179.3,241.8c-15.4,1.3-30.8,1.8-46.2,3c-10.1,0.7-20.3,1.5-30.4,1.7c-7.3,0.2-14.7-0.4-22-0.3
				c-1.6,0.2-3.9-0.3-5.1,0.6c-1,1-0.3,2.8,1.2,2.8c10.4-0.6,20.7,0.6,31.1,0c16.3-0.6,32.5-2.3,48.7-3.1c7.6-0.4,15.2-0.9,22.8-1.5
				C181.4,245,181.5,241.8,179.3,241.8z"/>
			<path style="fill:#FFFFFF;" d="M122.9,254.6c-10.3,0.8-20.6,1.5-31,1.9c-5,0.3-10.1,0.3-15,0.9c-1.4,0.5-1,2.8,0.5,2.7
				c15.5-1.3,31.2-0.9,46.6-2.5C126,256.8,124.9,254,122.9,254.6z"/>
			<path style="fill:#FFFFFF;" d="M146.2,254.6c-1.4,0-2.8,0.1-4.3,0c-0.1,0-0.1,0-0.1,0c-0.1,0-0.7,0-0.9,0.1
				c-1.3,0.4-1.1,2.4,0.2,2.7c0.2,0.1,3.1,0.5,4.6,0.4C148.1,258.2,148.6,254.7,146.2,254.6z"/>
			<path style="fill:#FFFFFF;" d="M168.3,254.5c-0.8-0.4-1.9-0.1-2.8-0.1c-1.1,0.2-2.4,0-3.5,0.3c-1.4,0.5-0.9,2.7,0.5,2.6
				c1.4,0,2.8,0.1,4.2,0.1C168.7,257.7,170,255.7,168.3,254.5z"/>
			<path style="fill:#FFFFFF;" d="M100.8,270.1c-7.1,0.8-16.2,1.9-22,2.2c0.7-0.1-0.4,0-0.9,0.1c-0.1,0-0.9,0-1.1,0.1
				c-1.2,0.4-0.8,2.4,0.5,2.4c0.2,0,0.8,0.1,0.6,0c0.4,0.1-0.5-0.1,0.2,0.1c1.2,0.1,0.6,0.1,1.5,0.2c0.4,0,0.4,0,0,0
				c6.7,0.3,18.2-1.5,22-2C103.9,272.9,103.2,269.5,100.8,270.1z"/>
			<path style="fill:#FFFFFF;" d="M155,269.1c-8.7,0.6-17.3,0.7-26,0.7c-3.4,0-6.8,0-10.3,0.1c-0.9,0.1-2.1-0.2-2.8,0.5
				c-0.9,0.9-0.2,2.6,1,2.5c9.3,0.2,18.6,0.4,27.9,0c3.4-0.1,6.8-0.3,10.2-0.5c0.4,0,0.8-0.2,1.1-0.5
				C157.2,270.9,156.4,269,155,269.1z"/>
			<path style="fill:#FFFFFF;" d="M173.8,270.5c-0.8-0.3-2.2-0.3-2.9,0.3c-1,1-0.3,2.8,1.2,2.8c0.8-0.1,1.6,0,2.2-0.6
				C175.2,272.3,174.9,270.9,173.8,270.5z"/>
			<path style="fill:#FFFFFF;" d="M139.9,285.5c-0.7-0.7-1.6-0.4-2.4-0.4c-12.1,0.3-24.3-0.1-36.4,0.6c-5.2,0.3-10.4,0.7-15.5,1.3
				c-1.2,0.2-5.7,0.6-8.1,1.7c-1.2,0.8-0.2,2.9,1.2,2.5c7.5-1.4,20.9-2.3,32-2.6c9.5-0.4,19.2,0.4,28.7-0.4
				C140.5,287.8,140.7,286.3,139.9,285.5z"/>
			<path style="fill:#FFFFFF;" d="M176,284c-2.4,0.2-4.8,0.4-7.2,0.5c-4.8,0.4-9.8-0.1-14.6,0.1c-1.7,0.6-1.1,3.2,0.6,3.1
				c6.2,0.4,12.4,0.2,18.6-0.2c1.2-0.2,2.7,0.2,3.7-0.7C178.2,285.8,177.4,283.9,176,284z"/>
			<path style="fill:#FFFFFF;" d="M88.4,302.5c-1.2-0.5-2.7-0.1-4-0.2c-1.8,0.1-3.6,0-5.3,0.4c-1.5,0.5-1,2.9,0.6,2.9
				c2.8-0.1,5.7,0.1,8.5-0.2C89.5,304.9,89.6,303.1,88.4,302.5z"/>
			<path style="fill:#FFFFFF;" d="M169.4,299.6c-14.9-0.2-29.6,1.6-44.5,2.1c-5.5,0.3-11.1,0.5-16.6,0c-2.1,0-2.1,3.3,0,3.3
				c14.1,0.7,28.2-0.7,42.3-1.6c6.4-0.6,13-0.2,19.4-0.7C171.7,302.1,171.1,299.5,169.4,299.6z"/>
		</g>
	</g>
	<g id="Layer_9">
		<g>
			<path d="M261.3,235.6c5.3,14,10.5,28,15.8,42.1c1.9,5.2,3.9,10.4,7.4,14.8s8.8,8.1,15.2,8.7c-16.1,17.2-40.4,29.8-66.2,34.7
				c-25.9,4.9-53.2,1.9-75.9-8.2c5.6-3.1,10.1-7.5,12.6-12.3c2.5-4.8,3.4-10,4.1-15.2c2.3-16.6-11.9-8.1,6.5-76.9
				c6.6-14.3,17.4,2.4,34.8-0.3C233,220.4,256.7,223.4,261.3,235.6z"/>
			<path style="fill:#E13F3D;" d="M222.5,305c0,0-53.7-18.3-61.7,4.7c-8.1,23-3.3,68.9,18.3,97.6c21.6,28.7,40.1,17.5,57.6,19.5
				c17.4,1.9,39.1,2.8,53.1-18c14-20.8,29.3-84.7,23.4-101.5c-6-16.9-50.9-8.8-63.2-2.4C237.7,311.3,222.5,305,222.5,305z"/>
			<path style="fill:#FFFFFF;" d="M195,307.9c1.1,13.2,6.5,25.9,12.9,37.5c6.4,11.6,17.5,23.7,30.5,20.9
				c9.1-1.9,15.1-12.1,20.5-19.6c9.4-13.2,14.3-27.9,15.9-44.1c-10.3-2.8-21.2,0.9-31.8,2.7c-16.1,2.7-32.9,0.6-47.8-5.9
				C195.3,303.3,195.4,307.3,195,307.9z"/>
			<path style="fill:#A82624;" d="M296.1,329.2c-7.7,10.7-12.2,23.7-12.8,36.8c-0.2,4.2,0,8.6-1.4,12.6s-4.8,7.7-9,7.8
				c-2.3,0-4.5-1-6.8-0.7c-2.3,0.2-4.5,2.8-3.2,4.6c1.3,1.8,4.6,1.3,5.3,3.3c0.7,1.9-1.9,3.5-2.2,5.6c-0.3,1.8,1.3,3.5,3.1,4
				c1.8,0.4,3.7,0,5.4-0.5c5.8-1.5,11.6-3,16.8-5.8c5.2-2.8,10-7,12.2-12.5c2.4-5.9,1.7-12.6,0.8-18.9
				C302.6,353.3,300.3,341.2,296.1,329.2z"/>
			<path style="fill:#A82624;" d="M213.7,363c0.1,6.1,0.3,12.3,2,18.2c1.7,5.9,5.1,11.5,10.3,14.6c5.2,3,11.7,3.4,16.7,6.7
				c2,1.3,3.9,3.6,3.2,5.9c-0.7,2.3-3.3,3.2-5.6,3.7c-6.7,1.6-13.5,2.8-20.4,3.5c-6,0.6-12.6,0.9-17.7-2.4
				c-3.9-2.5-6.5-6.7-7.9-11.2C189.6,387.6,197.3,370.2,213.7,363z"/>
			<path style="fill:#E13F3D;" d="M305.2,299.8c13.9,7.8,18.8,20.4,22.5,35.9c3.7,15.5,2.1,32.7,1.4,48.6
				c-0.3,7.2-0.7,14.9-4.8,20.8c-4.2,6.2-11.6,9.4-18.6,12.3c-21.7,9-43.7,18-66.9,21.1c-6.2,0.8-14.1,0.3-16.4-5.5
				c-2-5,1.7-10.4,5.6-14.2c9.8-9.6,62.9-30.5,62.9-30.5s-1.4-3.6-1.3-20.6C289.8,344,295.3,324.7,305.2,299.8z"/>
			<path style="fill:#A82624;" d="M311.4,383.3c-6.2-0.6-13-0.8-18.4,1.7c-1.8,0.8-3.5,2.2-3.2,3.8c0.3,1.7,2.7,2.7,4.8,3.4
				c2.4,0.8,4.7,1.6,7.1,2.4c2.2,0.7,4.8,1.5,7,0.6c-2.9-2.6-7-4.5-11.4-5.3c-0.9-0.2-2.1-0.5-2.2-1.2c-0.1-0.9,1.5-1.2,2.6-1.3
				c3.5-0.1,7-0.3,10.4-0.4c1.1,0,2.2-0.1,3.1-0.4c1-0.3,1.8-1,1.8-1.8C313.2,383.9,312.1,383.1,311.4,383.3z"/>
		</g>
		<g>
			<path style="fill:#FFB387;" d="M217.3,281.7c8.6,19.4-9.1,22.7-9.4,25.3c9.5,48.3,35.2,70.6,54.9-1.1c-1.2-0.7-17.3-7.8-9.7-25.9
				C257.4,269.8,206.9,268.2,217.3,281.7z"/>
			<path d="M218.3,286.8c2.8,2.1,4.8,5,7.2,7.6s5.3,4.9,8.8,5.4c3.7,0.5,7.4-1.3,10-4c2.6-2.7,4.3-6.1,5.6-9.6
				c-5.3-1.7-10.7-3.3-16.3-3.7C228,282.1,222.3,282.9,218.3,286.8z"/>
		</g>
		<g>
			<path style="fill:#FFB387;" d="M196.3,256.7c-1.2-2-2.5-4.1-4.4-5.6c-1.8-1.5-4.4-2.4-6.7-1.7c-3.7,1.2-5,6.1-3.6,9.7
				c1.4,3.6,4.8,6,8.2,8c2.9,1.7,6.8,3.1,9.3,0.9c1.5-1.4,1.9-3.7,1.3-5.7C200,260.2,197.9,259.2,196.3,256.7z"/>
			<path style="fill:#FFB387;" d="M253.9,236.5c1.9-2.4,2.4-5.5,3.5-8.3s3.6-5.6,6.6-5.2c1.9,0.2,3.5,1.7,4.3,3.4
				c0.9,1.7,1.1,3.7,1.4,5.6c0.6,4.2,0.9,9.1-2.1,12.1c-2.1,2.1-5.5,2.6-8.1,1.3C256.9,244,255.3,240.9,253.9,236.5z"/>
			<path style="fill:#FFB387;" d="M241.6,291.5c-49.4,6-81.1-82.3-31.1-99.3C265.6,178.5,282.1,272.1,241.6,291.5z"/>
			<path d="M218.222,251.725c1.689-0.939,4.125,0.217,5.44,2.582c1.315,2.365,1.011,5.044-0.678,5.983
				c-1.689,0.939-4.125-0.217-5.44-2.582C216.229,255.343,216.533,252.664,218.222,251.725z"/>
			<path d="M230.1,248.4c-0.4,3.4-0.3,6.8,0.4,10.1c0.3,1.2,0.7,2.5,1.7,3.2c0.9,0.6,2.2,0.6,3.3,0.6c1.1,0.1,2.4,0.4,2.9,1.3
				c0.5,1,0.1,2.2-0.7,3c-0.8,0.7-1.9,1-3,1.3c-1.1,0.2-2.2,0.4-3.2,0.9c2.3,0.9,5,1.3,7.4,0.4c2.3-0.9,4.1-3.5,3.5-5.9
				c-0.6-2.3-3.1-3.7-5.4-3.7c-1.4,0-3,0.3-4.1-0.6c-0.8-0.6-1-1.6-1.3-2.6C231.1,253.8,230.5,251.3,230.1,248.4z"/>
			<path d="M246.803,244.018c1.927-0.157,3.667,1.903,3.886,4.6c0.22,2.697-1.164,5.011-3.091,5.168
				c-1.927,0.157-3.667-1.902-3.886-4.6C243.492,246.489,244.876,244.175,246.803,244.018z"/>
			<path d="M193.8,225.1c-2.3,28.4,2.6,57.4,14.1,83.6C211,281.3,206.2,253,193.8,225.1z"/>
			<path d="M260.5,212.3c7.6,27.1,11.3,56.3,10.7,84C263.4,270.4,259.9,242,260.5,212.3z"/>
			<path d="M268.9,232.3c-2.8,0.9-9.5,4.6-12.3,5.5c-4.6-6.6-6-4.3-11.3-13.2c4.8,4.9,4.7,14.9,4.7,14.9s-7.9,4.1-20.2,5.1
				c-2.4-4.1-4.7-8.2-7.1-12.2c0.6,4,2,9.3,2.6,13.3c-6.9,3.9-15.5,4.7-23.4,5c-1.6-3.7-3.1-7.5-4.7-11.2c-0.1,3.9-0.1,7.9-0.2,11.8
				c-5.7,3.8-13.7,3.4-13.7,3.4s-13.4-50.7,16.2-56.9C242.9,165.2,265.9,215.4,268.9,232.3z"/>
			<path style="fill:#FFFFFF;" d="M252.8,212.1c-10.5-5.3-22.7-6.4-33.9-3.1c-11.2,3.3-21.4,10.8-30.1,22
				c3.6-15.5,13.3-24.8,27.3-29.1C230.1,197.5,248.2,202.3,252.8,212.1z"/>
			<path style="fill:#FFFFFF;" d="M224.6,275.1c1.7-0.1,14.8,1.4,21-2.6C243.1,284.7,228.3,285.9,224.6,275.1z"/>
		</g>
		<g>
			<path style="fill:#FF894B;" d="M43,460.2l-0.5-3.6l414.9-6.7l-0.6,5.8c-0.8,8.6-8.5,15.3-17.8,15.4l-377,4.4
				C52.4,475.7,44.3,469.1,43,460.2z"/>
			<path style="fill:#FFC782;" d="M455.5,445.2c3.5,3.1,2.1,8.6-2.5,9.8c-13,3.5-26.9,3.8-40.5,4c-110.6,2-222.3,0.6-335.4,2.3
				c-11.3-1.3-24.7,1-33.9-3.7c-0.4-0.2-0.6-0.6-0.6-1.1c0.9-6.2,5.5-11.3,10-16c23.8-25.3,25.3-33.7,31.7-35.9
				c0.6,0,296.1-3.8,302.8-1.5C393.3,405.2,422.6,415.5,455.5,445.2z"/>
			<path style="fill:#FF894B;" d="M171.1,402.4c0,0-30.4,14.6-39,24.4c-2.5,2.9-5,6.4-4.2,10.2c1.2,5.4,12.9,11,29.2,5.1
				c10.8-3.9,24.3,6.8,44.4,8.9c7.3,0.8,15.5,1.2,20.9-3.7c4.3-3.9,7.2-11.1,12.9-11.5c5.9-0.5,19.9,13.9,27.4,12.5
				c8.3-1.5,18.3-22.3,24.5-23.2c41.7-6.3,36.6-22.6,36.6-22.6H171.1V402.4z"/>
		</g>
		<g>
			<path style="fill:#E13F3D;" d="M169.1,300.9c-5.7,1.7-10.2,6.8-12.8,12.7c-2.6,5.9-3.5,12.5-4,19.1c-1.9,24.5,1.5,50,11.1,72.7
				c4,9.4,10.7,19.5,20,19.7c7.2,0.1,13.3-6.3,15.6-13.8c2.3-7.4,1.7-15.7,0.7-23.6C195.8,356.9,187.3,326,169.1,300.9z"/>
			<path style="fill:#A82624;" d="M182.7,335.6c-7.2,3.3-12.8,9.8-14.9,17.4c-0.5,1.9-1,4-2.7,4.9c-1.2,0.6-2.6,0.5-3.9,0.8
				c-1.3,0.3-2.7,1.5-2.2,2.8c0.7,1.9,4,0.9,5.4,2.4c1.2,1.4-0.1,3.4-1.1,4.9c-2.4,3.6-3.1,8.5-1.3,12.4c1.8,4,6.2,6.7,10.5,6
				c3-0.5,5.5-2.4,7.3-4.9c1.8-2.4,2.9-5.2,4-8.1c2.3-6.3,4.4-12.7,4.8-19.4C188.9,348.3,187.5,341.3,182.7,335.6z"/>
			<path style="fill:#E13F3D;" d="M192.3,325c5.2-4.3,19.3-1.1,21.9,4.8c2.6,5.9,9.6,51.1-13.7,90.5c-2.9,4.9-13.2,4.4-19.4,3.7
				c-4.7-0.5-8.1-4-10.5-7.6c-9.2-14.1-4.4-30.8-0.9-47.1C173.6,351.8,177.5,337.2,192.3,325z"/>
		</g>
		<g>
			<path style="fill:#FFB387;" d="M199.3,285.5c1.8-1.4,3.7-2.7,5.7-3.7c0.7-0.4,1.6-0.8,2.4-0.5c1,0.3,1.5,1.6,1.3,2.7
				s-1,1.9-1.8,2.7c-1.7,1.8-3.6,3.4-5.1,5.3s-2.7,4.2-2.7,6.7c0,2,0.7,3.9,0.5,5.9c-0.2,2-1.8,4.1-3.7,3.7c-1.4-0.3-2.2-1.7-2.7-3
				C190.8,298.5,193.4,290.1,199.3,285.5z"/>
			<path d="M199.9,295c-4.8,1.5-5.6,5.2-6.6,9.8C196.6,302.1,199.1,299.6,199.9,295z"/>
			<path style="fill:#FFB387;" d="M211.1,294.7c-3.6,0.4-7.3,0.8-10.7,2.2c-3.4,1.4-6.4,4-7.6,7.5c-0.9,2.7-0.5,5.6-0.1,8.4
				c0.6,3.6,1.3,7.2,2.1,10.8c0.8,3.7,2.2,7.9,5.7,9.3c3.9,1.6,8.2-1.1,11.2-4c4.9-4.7,9.1-10.7,9.7-17.5
				C222.2,304.5,218.5,297,211.1,294.7z"/>
			<path d="M200,304c3.4-1.8,6.8-3.5,10.4-4.9c1.3-0.5,2.7-1,4-0.9c2.1,0.2,3.9,1.9,5.2,3.5c-2.8-2.1-6.7-1.7-10.1-0.7
				S203,303.7,200,304z"/>
			<path d="M203.7,310.4c3.9-1.3,7.8-2.5,11.7-3.7c1.2-0.4,2.5-0.7,3.7-0.8c1.3,0,2.6,0.3,3.6,1.1c0.9,0.9,1.4,2.3,0.9,3.5
				c-0.5-1.2-1.7-2-3-2.2c-1.3-0.2-2.6,0-3.9,0.3C212.2,309.5,207.7,310.3,203.7,310.4z"/>
			<path d="M212.5,317.1c-1.6,0.4-2.7,2.1-2.4,3.7c0.2,1.6,5.2,2.1,6.8,2.2c-1.7,0.6-7.2,0.9-8.4-0.5s-1.4-3.5-0.5-5
				c0.9-1.6,2.8-2.5,4.5-2.2c-0.8-0.7-1.4-1.7-1.7-2.7c1.3,0.5,2.4,1.6,3,2.8c0.5-1,1.2-1.9,2.1-2.5c0,1.1,0,2.2-0.6,3.1
				C214.9,316.9,213.7,317.5,212.5,317.1z"/>
		</g>
		<g>
			<path style="fill:#FF894B;" d="M96.3,428.2c-8.5,3.2-9,2.2-15.2,8.7c-10.2,10.6,5.1,21.1,8.2,21.2c11.3,0.2,19.1,10.4,25.1-8
				c1.1-3.4,7.4-1.5,9.4-4.3c2.4-3.4,1-8.3-2.1-11.1c-3.1-2.8-7.5-3.8-11.7-4.2C105.8,430.1,101.6,430.1,96.3,428.2z"/>
			<path style="fill:#024A49;" d="M88.5,421.5c-5.9-11.5-9.6-24.1-10.8-37c-0.3-2.8-0.4-5.8,0.7-8.4s3.8-4.8,6.7-4.5
				c3,0.3,5.1,3,6.4,5.7c2.7,5.5,3.7,11.8,2.7,17.8c-0.6-3.9,4.1-7.2,8-6.3c3.9,1,6.4,5.1,6.3,9c0.7-3.6,1.4-7.3,3.7-10.2
				c2.2-2.9,6.5-4.7,9.8-3.2c3.7,1.7,4.7,6.4,4.7,10.4c0,6.4-1.4,12.8-4.7,18.3s-8.7,9.9-15.1,11.5
				C100.4,426.1,93.2,424.5,88.5,421.5z"/>
			<path style="fill:#0C7878;" d="M114.8,420c3.5-5.4,2.3-13.3-2.6-17.5c-5-4.2-13.1-4.4-18.2-0.3c-1.2-3.8-2.7-7.7-5.9-10.1
				c-3.2-2.4-8.7-2.4-10.7,1.1c-1.1,1.9-0.9,4.2-0.6,6.3c1.7,10.3,7,19.9,14.7,27.2C99.7,430.1,110,427.5,114.8,420z"/>
			<path style="fill:#3FA1A2;" d="M88.4,419.9c-0.4-3.1-2-5.9-2.3-9c-0.3-3.1,1.5-6.8,4.6-7c3-0.2,5.2,2.8,6.6,5.4
				c-0.2-2.4-0.3-4.9,0.1-7.3c0.5-2.4,1.7-4.7,3.7-6.1c2.5-1.7,6.2-1.7,8.6,0.1c2.5,1.8,3.5,5.2,2.6,8c0.1-2.1,0.2-4.2,1.1-6.2
				c0.8-1.9,2.5-3.7,4.6-4c2.9-0.4,5.6,1.9,6.5,4.6c0.9,2.7,0.4,5.6-0.1,8.4c-1.3,6.6-3.5,13.8-9.4,17.3c-4,2.4-9,2.7-13.7,2.4
				c-2.5-0.2-5.1-0.5-7.4-1.6C91.7,424.1,88.8,422.5,88.4,419.9z"/>
			<path style="fill:#FFFFFF;" d="M78.5,406.7c14.6,8,32.4,8.6,47.4,1.6c-2.1,6.6-4.3,13.2-6.4,19.8c-1,3-2.1,6.2-4.3,8.4
				c-3.2,3-7.8,3.3-12.1,3.3c-3.9,0.1-8.1,0.1-11.4-2.1c-2.2-1.4-3.8-3.7-5.2-6.1C82.3,424.7,79.9,416.5,78.5,406.7z"/>
		</g>
	</g>
	<g id="Layer_11">
		<g>
			<path style="fill:#FF894B;" d="M310.9,404.3c-5.7,6.4-11.3,12.8-17,19.1c-1.2,1.3-2.4,2.8-2.4,4.5c0,2.1,1.8,3.6,3.4,4.9
				c15.8,11.5,36.4,13.3,55.8,14.6c9.4,0.7,18.9,1.3,28.2-0.3c9.3-1.7,18.4-5.9,24.1-13.4c3.3-4.4,6.5-6.7,9.8-11.1
				C380,414,347.6,407,310.9,404.3z"/>
			<path style="fill:#3277C7;" d="M309,406.6c9.2-24,18.3-47.9,27.5-71.9c1.1-3,2.5-6.2,5.4-7.6c2.4-1.2,5.3-0.6,7.9-0.1
				c18,3.7,36,7.4,54,11.1c2.3,0.5,4.8,1,6.2,2.9c1.4,1.8,1.5,4.2,1.6,6.5c0.4,25.1,0.8,50.1,1.2,75.2c-8.7,2.4-25.8,11.1-36.9,8.4
				C363.8,428.1,320.8,413.4,309,406.6z"/>
			<path style="fill:#002B5C;" d="M403,344.5c-7.4,23.9-18.5,54.1-30.9,75.9c-3.5,6.1-44.8-9.6-58.2-15c-0.8-0.3-1.6-0.7-2-1.4
				c-1.1-2.1,4.3-11.5,9.2-22c2.3-5,4.7-10.1,8.9-13.6c3.8-3.2,8.7-4.7,13.5-6.1C362.7,356.4,381.9,350.6,403,344.5z"/>
			<path style="fill:#002B5C;" d="M412.9,422.6c-2.4-20.8-2.6-41-2.3-61.9c0.1-4.2,0-8.9-0.3-12.5c-0.3-3.7-3.7-2.6-4.8-0.1
				c-8.7,20.1-6.3,55.5-22.6,83.5C394,430,400.6,427.3,412.9,422.6z"/>
			<path style="fill:#4F9EF7;" d="M404.6,342.9c-7.6,22.4-20,43.2-36,60.6c-3.3,3.6-7,7.1-11.8,8.2c-4.8,1.1-9.8-0.7-14.4-2.4
				c-21.9-8.2-43.7-16.4-65.6-24.5c26.7-8.5,49.6-28.5,60.9-54.3C359.5,333.5,381.1,338,404.6,342.9z"/>
			<path style="fill:none;stroke:#002B5C;stroke-width:2;stroke-linecap:round;stroke-miterlimit:10;" d="M335.8,326
				c0.2,3.3,3.8,5.9,6.9,5c2.6-0.7,4.3-3.1,5.7-5.3c1-1.6,2-3.8,0.7-5.1c-1.1-1.1-3-0.7-4.2,0.3c-2.8,2.3-2.8,7.2-0.1,9.7
				c2.7,2.5,7.2,2.5,10.1,0.2c1.3-1,2.4-2.7,2.2-4.4c-0.2-1.7-1.9-3.2-3.5-2.7c-1.2,0.4-1.8,1.7-2.3,2.8c-0.9,2.3-1.4,5.1,0.2,6.9
				c1.4,1.7,4,1.8,6,1c2-0.8,3.5-2.5,5-4.1c0.8-0.8,1.6-1.7,1.9-2.8c0.3-1.1-0.1-2.5-1.1-3c-0.8-0.4-1.8-0.1-2.5,0.5
				c-2.1,1.5-2.4,4.8-0.9,6.9s4.3,3,6.8,2.6s4.7-2.1,6.3-4.1c0.8-1,1.4-2.4,0.8-3.6c-0.7-1.4-2.8-1.5-4.1-0.6
				c-2.3,1.6-2.5,5.2-0.9,7.4c1.7,2.2,4.7,3.1,7.5,2.7c2.8-0.4,5.3-1.8,7.5-3.5c0.9-0.7,1.9-1.6,2.3-2.7s0-2.6-1-3.1
				c-1.5-0.6-3,0.8-3.9,2c-1.7,2.2-3.6,5.1-2.4,7.6c1,2.3,4.1,3.1,6.5,2.4c2.4-0.7,4.3-2.5,6.1-4.3c0.8-0.8,1.6-1.7,1.5-2.8
				c-0.2-1.6-2.4-2.1-3.9-1.3c-3,1.5-3.3,6.2-1.1,8.7c2.2,2.6,6,3.3,9.3,2.8c1.7-0.3,3.5-0.8,4.7-2.1c1.2-1.2,1.7-3.3,0.8-4.8
				c-1.3-2.2-5.2-1.7-6.3,0.7c-1.1,2.3,0.3,5.3,2.7,6.4c2.3,1.1,5.2,0.6,7.4-0.8c2.2-1.3,3.8-3.4,5.3-5.5"/>
			
				<text transform="matrix(0.965 0.2622 -0.2622 0.965 328.2896 351.4915)" style="fill:#FFFFFF; font-family:'Damion'; font-size:34.9109px;">2022</text>
			<path style="fill:#FFFFFF;" d="M316.7,366.5c1.7-2.2,4.7-4.3,8.6-9.3c1.2-1.5,4.8,0.6,6.6,1.3c1.4,0.5,2.7,1,4.1,1.6
				c0.6,0.3,1.3,0.6,1.5,1.2c0.3,0.8-0.2,1.7-0.6,2.4c-1.3,1.9-2.5,3.8-4.2,5.3c-1.7,1.5-3.9,2.6-6.1,2.5c-1.7-0.1-3.3-0.8-4.8-1.5
				C320,369.1,315.8,367.7,316.7,366.5z"/>
			<path style="fill:#FFFFFF;" d="M313.5,369.4c1.7,0.3,10,3.7,10.7,4.9c0.6,1.1-0.4,2.3-1.4,3.1c-2.4,2-4.7,4-7.2,5.9
				c-1.7,1.4-3.6,2.8-5.8,3.4c-4.1,1.1-8.3-0.8-12-2.7c-0.8-0.4-1.7-0.9-2.1-1.6C295.2,381.6,312.1,369.1,313.5,369.4z"/>
			<path style="fill:#FFFFFF;" d="M375.7,372.1c-8-1.9-19.9-4.8-29.1-7.7c-1.4-0.4-2.7-0.9-4.1-1.2c-0.5-0.1-1-0.3-1.5,0
				c-0.8,0.5-0.8,1.7,0,2.2c5.9,2.4,26.2,8.1,34.5,9.4C377,374.7,377.2,372.4,375.7,372.1z"/>
			<path style="fill:#FFFFFF;" d="M370.8,379c-4.7-1.3-9.3-3.2-14-4.5c-3.7-1.1-7.6-1.6-11.2-2.9c-2.9-1-6.8-2.3-8.3-2.2
				c-1.1,0.1-1.2,1.8-0.1,2.1c2.7,0.7,3.2,1.3,6.4,2.5c3.5,1.4,7.2,2,10.8,2.9c5.6,1.3,10.9,4,16.5,5
				C372.5,381.6,372.4,379.2,370.8,379z"/>
			<path style="fill:#FFFFFF;" d="M365.6,385c-0.6-0.8-0.6-0.5-0.9-0.7c-9-3.4-18.3-5.8-27.7-8.2c-1.5-0.3-3.1-1.1-4.6-0.8
				c-1,0.4-0.9,2,0.1,2.2c2.2,0.6,3.4,1.2,6,2c3.1,0.9,6.3,1.5,9.5,2.4c4.6,1.4,9.2,2.9,13.8,4.5c0.9,0.2,1.8,0.7,2.7,0.7
				C365.6,387,366.1,385.8,365.6,385z"/>
			<path style="fill:#FFFFFF;" d="M340.5,385.5c-0.3-0.6-0.9-0.7-1.5-0.8c-1.5-0.4-3-0.8-4.5-1.1c-2.4-0.6-4.8-1.4-7.3-2
				c-0.5-0.1-0.9-0.3-1.4,0c-0.8,0.4-0.7,1.8,0.3,2c3,1.1,7.8,3,11.9,3.9c0.5,0.1,0.9,0.3,1.4,0.2
				C340.4,387.6,341,386.4,340.5,385.5z"/>
			<path style="fill:#FFFFFF;" d="M355.4,390.3c-1-0.7-2.3-0.8-3.5-1.2c-1.6-0.3-3.2-1.1-4.8-1.2c-1.3,0.1-1.4,2-0.1,2.3
				c2.5,0.8,5,2.1,7.6,2.5C355.7,392.6,356.2,391.1,355.4,390.3z"/>
			<path style="fill:#FFFFFF;" d="M355.7,398c-5.9-1.6-18.9-5.5-27.2-8.4c-3-1-6-2-9.1-2.6c-0.9,0.1-1.2,1.4-0.4,1.9
				c8.4,3.3,26.9,9.6,36,11.7C356.7,401,357.4,398.4,355.7,398z"/>
		</g>
	</g>
	<g id="Layer_13">
		<g>
			<g>
				<path style="fill:#FF894B;" d="M263.9,67.5c0.8-1.8,0.8-4,0-5.8c-0.8-1.8-2.5-3.1-4.3-3.4c-1.8-0.3-3.6,0.4-4.9,1.7
					c-1.9,1.8-2.8,4.8-2.1,7.4c0.7,2.6,3,4.7,5.5,4.8C260.5,72.3,262.6,70.2,263.9,67.5z"/>
				<path style="fill:#FFC782;" d="M266.3,67.7c0.8-1.8,0.8-4,0-5.8c-0.8-1.8-2.5-3.1-4.3-3.4s-3.6,0.4-4.9,1.7
					c-1.9,1.8-2.8,4.8-2.1,7.4s3,4.7,5.5,4.8C262.9,72.6,265,70.4,266.3,67.7z"/>
			</g>
			<g>
				<path style="fill:#3FA1A2;" d="M272.9,87.3c-1.6,0.5-3.1,1-4.7,1.1c-1.6,0-3.3-0.4-4.5-1.7c-1-1.1-1.5-2.6-2.1-4
					c-1.6-3.6-4.8-6.3-8.4-7.3s-7.7-0.3-10.8,1.9c-2.5,4.7-4.8,10.1-7.1,15.6c2.6-1.8,6.2-1.4,9,0s5.1,3.8,7.4,6
					c2.3,2.2,4.9,4.3,7.9,5.1s6.7-0.2,8.4-2.1C269.3,96.5,270.9,91.3,272.9,87.3z"/>
				<path style="fill:#024A49;" d="M272.9,87.3c-1.6,0.5-3.1,1-4.7,1.1c-1.6,0-3.3-0.4-4.5-1.7c-1-1.1-1.5-2.6-2.1-4
					c-1.6-3.6-4.8-6.3-8.4-7.3s-7.7-0.3-10.8,1.9c-2.5,4.7-4.8,10.1-7.1,15.6c2.6-1.8,6.2-1.4,9,0s5.1,3.8,7.4,6
					c2.3,2.2,4.9,4.3,7.9,5.1s6.7-0.2,8.4-2.1C269.3,96.5,270.9,91.3,272.9,87.3z"/>
				<path style="fill:#FFFFFF;" d="M254.9,94c0.2-0.4-0.2-0.9-0.6-0.9c-0.4,0-0.8,0.4-0.8,0.9c0,0.4,0.2,0.9,0.4,1.2
					c0.7,0.8,1.8,1.1,2.8,0.8c1-0.3,1.8-1,2.4-1.9c1.2-1.7,1.6-4.1,0.8-6.1c-0.8-2-2.7-3.5-4.8-3.4c-2,0-4,1.6-4.5,3.7
					c-0.5,2.1,0.8,4.5,2.7,5.2c-0.6-1-1.2-2.1-1.4-3.2c-0.2-1.1-0.2-2.5,0.5-3.4c0.8-1.1,2.1-1.5,3.4-1.3c2.1,0.3,3.8,2.2,4,4.4
					c0.2,2.2-1.2,4.4-3.1,5.1C256,95.1,254.9,95,254.9,94z"/>
				<path style="fill:#FFFFFF;" d="M265.5,100c-0.1,0.3-0.2,0.6-0.2,0.9c0.1,0.3,0.4,0.5,0.6,0.4c0.1-0.1,0.2-0.3,0.3-0.4
					c1.3-3.7,2.5-7.5,3.8-11.2c0-0.1,0.1-0.2,0-0.3c-0.1-0.2-0.3-0.2-0.5-0.1c-0.2,0.1-0.2,0.3-0.3,0.5
					C268.3,93.3,266.9,96.7,265.5,100z"/>
				<path style="fill:#FFFFFF;" d="M239.5,87.3c-0.6,0.8-0.9,1.8-0.7,2.7c2.3-3.9,4.2-8,5.7-12.2c0.1-0.2,0.1-0.5-0.1-0.6
					c-0.2-0.2-0.5,0.2-0.6,0.4C242.4,81.1,241.4,84.9,239.5,87.3z"/>
			</g>
			<g>
				<path style="fill:#0C7878;" d="M262.5,54.2c1.9,1.7,3.9,3.4,5.4,5.6s2.4,5,1.9,7.7c-0.4,2.4-1.9,4.4-3,6.6
					c-2.8,5.5-3.4,12.4-1.5,18.4c1.9,6,6.3,10.9,11.6,13.2c7.8-0.7,16.2-2.5,24.7-4.2c-4.4-2-7-7.3-7.8-12.5
					c-0.7-5.2,0.1-10.5,0.7-15.8c0.6-5.2,0.9-10.7-0.8-15.7c-1.7-5-6-9.1-9.8-9.7C276.7,50.9,269.2,53.4,262.5,54.2z"/>
				<path style="fill:#FFFFFF;" d="M286.2,73.3c-0.6,0.1-0.9,1-0.6,1.6c0.3,0.6,1.2,0.7,1.7,0.3c0.6-0.3,0.9-1,1.1-1.7
					c0.4-1.7-0.3-3.5-1.5-4.6c-1.2-1.1-2.8-1.6-4.3-1.7c-3.1-0.1-6.3,1.6-8,4.5c-1.7,2.9-1.7,6.9,0,9.8c1.8,2.8,5.4,4.2,8.3,2.9
					c2.9-1.3,4.7-5.1,3.8-8.5c-0.7,1.7-1.5,3.5-2.6,4.9c-1.1,1.4-2.8,2.5-4.5,2.4c-1.9-0.1-3.7-1.6-4.5-3.5
					c-1.4-3.1-0.7-7.3,1.8-9.6c2.4-2.3,6.3-2.4,8.8-0.3C286.6,70.6,287.4,72.2,286.2,73.3z"/>
				<path style="fill:#FFFFFF;" d="M284.1,53c0.4-0.1,0.9-0.2,1.2-0.5c0.3-0.3,0.3-1-0.1-1.2c-0.2-0.1-0.5-0.1-0.7,0
					c-5.6,1.6-11.1,3.3-16.7,4.9c-0.1,0-0.3,0.1-0.4,0.2c-0.2,0.3,0,0.7,0.3,0.8c0.3,0.1,0.6,0,0.9-0.1
					C273.7,55.2,278.9,54,284.1,53z"/>
				<path style="fill:#FFFFFF;" d="M291.5,100.7c1.4,0.1,2.9-0.4,3.9-1.5c-6.6,0.3-13.1,1.4-19.5,3.2c-0.3,0.1-0.7,0.3-0.7,0.6
					c0,0.4,0.6,0.5,1,0.4C281.6,102.4,287,100.3,291.5,100.7z"/>
			</g>
			<g>
				<path style="fill:#3FA1A2;" d="M295.5,44.1c0.8,2.6,1.6,5.2,1.8,8c0.1,2.7-0.5,5.6-2.2,7.6c-1.5,1.8-3.7,2.6-5.7,3.8
					c-5.1,3-8.9,8.4-10.2,14.6c-1.3,6.2,0,12.9,3.3,18.1c6.9,4,14.9,7.6,22.9,11.1C302.6,103,303,97,305,92.2
					c1.9-4.8,5.2-8.8,8.3-12.9c3-4.1,6-8.5,6.9-13.7c0.9-5.2-0.6-11.3-3.5-14C309,49.7,301.5,47.3,295.5,44.1z"/>
				<path style="fill:#3FA1A2;" d="M295.5,44.1c0.8,2.6,1.6,5.2,1.8,8c0.1,2.7-0.5,5.6-2.2,7.6c-1.5,1.8-3.7,2.6-5.7,3.8
					c-5.1,3-8.9,8.4-10.2,14.6c-1.3,6.2,0,12.9,3.3,18.1c6.9,4,14.9,7.6,22.9,11.1C302.6,103,303,97,305,92.2
					c1.9-4.8,5.2-8.8,8.3-12.9c3-4.1,6-8.5,6.9-13.7c0.9-5.2-0.6-11.3-3.5-14C309,49.7,301.5,47.3,295.5,44.1z"/>
				<path style="fill:#FFFFFF;" d="M306.1,74.2c-0.6-0.3-1.3,0.3-1.3,1c0,0.7,0.6,1.3,1.3,1.3c0.6,0.1,1.2-0.3,1.7-0.8
					c1.1-1.2,1.4-3.1,1-4.8c-0.4-1.7-1.5-3-2.8-4c-2.6-2-6.1-2.4-8.9-1c-2.8,1.4-4.9,4.8-4.7,8.3c0.1,3.5,2.5,6.7,5.6,7.4
					c3.1,0.7,6.5-1.5,7.3-4.8c-1.5,1-2.9,2.1-4.6,2.6c-1.7,0.5-3.6,0.5-5-0.6c-1.6-1.2-2.3-3.5-2.1-5.7c0.3-3.5,3-6.6,6.2-7
					c3.2-0.5,6.5,1.7,7.6,5C307.7,72.2,307.6,74,306.1,74.2z"/>
				<path style="fill:#FFFFFF;" d="M314.2,55.9c0.4,0.2,0.8,0.4,1.3,0.3c0.4-0.1,0.8-0.7,0.5-1.1c-0.1-0.2-0.4-0.3-0.6-0.4
					c-5.5-1.9-11-3.9-16.4-5.8c-0.1-0.1-0.3-0.1-0.4,0c-0.3,0.1-0.3,0.6-0.1,0.8c0.2,0.3,0.5,0.3,0.8,0.4
					C304.4,51.5,309.4,53.6,314.2,55.9z"/>
				<path style="fill:#FFFFFF;" d="M297.2,100.5c1.1,1,2.6,1.3,4,1c-5.7-3.6-11.7-6.6-18-9c-0.3-0.1-0.7-0.2-0.9,0.1
					c-0.2,0.4,0.2,0.8,0.6,1C288,96,293.6,97.4,297.2,100.5z"/>
			</g>
			<g>
				<path style="fill:#FF894B;" d="M255.4,111.3c-1.6-0.8-3.7-0.7-5.2,0.3c-1.6,1-2.7,2.9-2.8,4.9c-0.2,1.9,0.5,3.9,1.7,5.4
					c1.7,2,4.5,2.8,6.8,2c2.4-0.9,4.1-3.5,4.1-6.2C260,115,258,112.5,255.4,111.3z"/>
				<path style="fill:#FFC782;" d="M255.5,108.6c-1.6-0.8-3.7-0.7-5.2,0.3c-1.6,1-2.7,2.9-2.8,4.9c-0.2,1.9,0.5,3.9,1.7,5.4
					c1.7,2,4.5,2.8,6.8,2c2.4-0.9,4.1-3.5,4.1-6.2C260.1,112.1,258,109.9,255.5,108.6z"/>
			</g>
			<g>
				<path style="fill:#FF894B;" d="M324.4,82.4c-1.8-1.7-4.4-2.5-6.7-1.9c-2.3,0.6-4.3,2.4-5.2,4.9c-0.9,2.4-0.7,5.1,0.4,7.4
					c1.5,3.2,4.7,5.4,7.9,5.3c3.3-0.1,6.4-2.6,7.2-6S327.2,85.1,324.4,82.4z"/>
				<path style="fill:#FFC782;" d="M325.4,79.2c-1.8-1.7-4.4-2.5-6.7-1.9c-2.3,0.6-4.3,2.4-5.2,4.9c-0.9,2.4-0.7,5.1,0.4,7.4
					c1.5,3.2,4.7,5.4,7.9,5.3c3.3-0.1,6.4-2.6,7.2-6C330,85.4,328.2,81.8,325.4,79.2z"/>
			</g>
		</g>
	</g>
	<g id="Layer_15">
		<g>
			<g>
				<path style="fill:#E13F3D;" d="M318.7,170.2c-11.8-7.8-20.6-24.9-22.8-37.7c-0.9-5.2-0.6-11.3,4-14.7c4.8-3.6,12.5-2.5,17.3,1.1
					c4.8,3.6,7.1,9.1,8.5,14.5c0.8-6.6,6.8-12.6,14.2-13.9s15.7,2,19.4,7.9c5.2,8.2,1.1,18.8-5.9,25.9
					C345.8,161,335.5,171.3,318.7,170.2z"/>
				<path style="fill:#A82624;" d="M307.5,159c3.3,2.2,7.6,3,11.7,2.5c4.1-0.4,7.9-1.8,11.6-3.4c11.3-4.7,21.1-10.2,30.2-17.8
					c-2.3,8.8-6.9,16-14.4,22.1c-7.5,6.1-17.1,10.1-27.2,11.4C314.9,169.4,311,164.1,307.5,159z"/>
				<path style="fill:#A82624;" d="M325.7,133.4c-1.1,3.8-2.4,5.4-3.5,9.2c-0.2-8.7-1.8-14.8-4.4-23.2
					C322.8,123.1,327.1,128.5,325.7,133.4z"/>
			</g>
			<g>
				<path style="fill:#E13F3D;" d="M291.2,167.5c-3.6-1-7.9-4.8-10.2-8.1c-0.9-1.3-1.7-3-1.2-4.4s2.4-1.9,3.9-1.4s2.8,1.8,3.9,3.2
					c-0.8-1.9-0.3-4.1,1.2-5.2c1.4-1.1,3.7-1,5.3,0.3c2.3,1.7,2.8,5,2.3,7.7C295.8,162.4,295,166.2,291.2,167.5z"/>
				<path style="fill:#A82624;" d="M287.2,165.5c1,0.3,2.1,0.1,2.9-0.4c0.8-0.5,1.5-1.3,2.1-2c1.8-2.4,3.2-4.8,4.1-7.8
					c0.7,2.6,0.7,5.1,0,7.5c-0.7,2.4-2.3,4.4-4.3,5.8C290.3,167.6,288.7,166.6,287.2,165.5z"/>
				<path style="fill:#A82624;" d="M287.6,156.7c0.3,1.1,0.2,1.7,0.5,2.9c-1.3-2.4-2.4-3.9-4.2-5.9
					C285.5,154.2,287.2,155.3,287.6,156.7z"/>
			</g>
			<g>
				<path style="fill:#E13F3D;" d="M339.4,114.2c-3.5-3.2-5.3-8.9-5.1-12.9c0.1-1.6,0.6-3.4,2.5-4c1.9-0.7,4.5,0.2,5.9,1.6
					c1.4,1.4,1.8,3.2,1.9,4.9c0.7-1.9,3.3-3.2,6-3c2.7,0.2,5.3,1.8,6.1,3.8c1.2,2.8-1,5.6-3.9,7.2
					C349.5,113.6,345.1,115.8,339.4,114.2z"/>
				<path style="fill:#A82624;" d="M336.4,110.1c1,0.9,2.4,1.5,3.8,1.6c1.4,0.2,2.9,0.1,4.3-0.1c4.3-0.5,8.1-1.4,11.8-2.9
					c-1.4,2.4-3.6,4.2-6.6,5.4c-3,1.2-6.7,1.7-10.3,1.3C338.2,113.7,337.2,111.8,336.4,110.1z"/>
				<path style="fill:#A82624;" d="M344.6,103.9c-0.6,1-1.2,1.4-1.9,2.5c0.6-2.6,0.5-4.5,0.2-7.2
					C344.3,100.6,345.4,102.6,344.6,103.9z"/>
			</g>
		</g>
	</g>
	<g id="Layer_17">
		<g>
			<path style="fill:#002B5C;" d="M448.1,116.2c-1-3.3-4.4-7.4-8.1-9.2c-2.7-1.4-8.1-3.8-9.5-4.9c-2.5-2-3.8-3.7-5.3-5.9
				C421.5,89.6,419.7,81,415,74c-5.1-8.1-14.5-16.4-24-14.8c-5.6,1-11.1,3.9-15.3,8.3c-4.1,4.9-7.1,11.4-6.9,18.1
				c-0.1,3.4,1.5,7.6,2.4,9.6c1.2,3,4,7.4,6.5,10.7c2,2.5,5.2,6.9,5.9,8.8c0,0.1,0,0.1,0.1,0.1c0,0,0,0,0,0.1s0.1,0.3,0.1,0.4
				c-0.1,2.3,2.5,2.6,2.6,0.3c0-1.2-0.4-2.3-0.9-3.3c-1.3-2.7-3.1-5-4.9-7.2c-4-5.5-8-10.4-9.3-17c-1.3-6.6,1.8-14.9,6.4-19.6
				c4.8-4.7,11.2-7.7,16.6-7.3c7.1,0.8,13.3,6.8,17.1,12c4.9,6.7,6.7,13.5,10,21.3c1.6,3.5,3.6,6.7,6.4,9.1c2.3,2,5,3.2,7.7,4.4
				c6.1,2.4,10.4,6.1,11,12.1c0.5,4.9,0.4,8.3-0.8,13.1c-0.1,0.3-0.1,0.1,0,0c-0.1,0.3-0.2,0.7-0.1,1c0.2,0.8,1.2,1.2,1.9,0.7
				c0.7-0.6,0.7-1.8,1-2.7C449.6,126.5,449.5,120.8,448.1,116.2z"/>
			<path style="fill:#FFC782;" d="M375.3,79.8c3.6-6.5,10.1-10.8,16.8-11.2c6.7-0.4,13.4,3.1,17.3,9c-4.3-4.5-10.8-5.7-16.7-4.6
				C386.8,74.1,381.3,77.2,375.3,79.8z"/>
			<path style="fill:#FFC782;" d="M419.5,100.5c1.7,3.6,4.8,5.9,8.1,7.7c3.3,1.8,6.6,3.1,9.6,5.4c3,2.3,5.5,5.7,5.8,9.7
				c-3.3-4.6-7.6-8.3-12.4-10.7c-2.5-1.2-5.2-2.2-7.4-3.9C420.8,107,419,104.1,419.5,100.5z"/>
			<path style="fill:#FFC782;" d="M366.1,93.1c-2.2-10.1,0.3-21.4,6.5-29.4c-5.2,1.6-9.4,6.7-10.6,12.6
				C360.8,82.2,362.7,88.7,366.1,93.1z"/>
			<path style="fill:#3FA1A2;" d="M387.6,133c1.8-7.7,1.6-15.8-0.5-23.3c-2.2,0.7-4.3,1.7-6,2.5c2,6.7,2.4,14,1.2,21
				C383.8,134.3,385.9,134.3,387.6,133z"/>
			<path style="fill:#0C7878;" d="M440,153.3c5.1-5.6,8.7-12.8,10.4-20.5c-2.2-0.6-4.4-1-6.2-1.4c-1.5,7-4.5,13.5-8.8,18.9
				C436.2,152.1,438,153.3,440,153.3z"/>
		</g>
	</g>
	<g id="Layer_18">
		<g>
			<path d="M147.62,58.8c-0.3-1.1-1.4-4.2-1.5-4.4c-2.6-7.1-7.5-19.6-15-21.6c-5.3-1-8.1,6.3-11.2,11.5c-3.3,5.5-5.8,11.4-8.6,17.1
				c-0.8,1.4,1.4,2.7,2.2,1.3c2.6-5.1,3.7-8.3,5.8-12.4c2.5-4.4,4.6-9.1,7.4-13.3c1.2-1.9,2.8-2.9,4.9-1.9c2.9,1.5,4.6,3.9,6.5,6.7
				c2.5,3.8,4.2,7.2,5.5,11.2c1,3,1.8,5.9,2.8,8.9c0.1,0.8,0.9,1.4,1.6,0.9C149.32,61.9,147.82,59.9,147.62,58.8z"/>
			<ellipse style="fill:#E13F3D;" cx="129.92" cy="90.9" rx="45.1" ry="44.6"/>
			<ellipse style="fill:#A82624;" cx="129.62" cy="91.1" rx="38.8" ry="37.7"/>
			<ellipse style="fill:#FFFFFF;" cx="129.62" cy="91.1" rx="31.7" ry="32.1"/>
			<g>
				<path d="M131.12,66.8c0-1.1,0-2.3-0.1-3.4c0-0.5,0-1-0.3-1.3c-0.6-0.6-1.7-0.2-1.7,0.7c0.1,1.3-0.2,4.3-0.2,4.6
					c-0.3,1.1,1.1,2.1,1.9,1.2C131.22,68.1,131.02,67.4,131.12,66.8z"/>
				<path d="M130.52,89.7c0.1-5.5,0.2-11.8,0.4-16.5c-0.2-0.6-1.1-0.8-1.5-0.3c-0.3,0.3-0.3,0.8-0.3,1.2c0,0.2,0,0.4,0,0.7
					c-0.5-0.4-1.5-0.2-1.5,0.7c0.1,4.7,0.2,9.6,1.2,14.2c-0.1,0.6-0.1,1.2,0.2,1.7c0.1,0.1,0.2,0.1,0.3,0.2c0,0,0,0,0,0.1
					c0.5,0.7,1.7,0.1,1.5-0.7C130.72,90.5,130.62,90.1,130.52,89.7z"/>
				<path d="M128.22,114.3c-0.1,1.5,0,4-0.1,4.5c0,0.8-0.4,1.8,0.3,2.5c0.7,0.8,2.1,0.2,2.1-0.9c0-1.8,0.1-3.6,0.3-5.5
					C131.42,112.9,128.42,112.2,128.22,114.3z"/>
				<path d="M104.92,88.6c-1,0-2,0-2.9,0c-1.3,0-1.5,1.8-0.3,2.2c1.1,0.2,2.1,0.3,3.2,0.4c0.9,0.2,1.9-0.3,1.9-1.3
					C106.72,88.9,105.82,88.5,104.92,88.6z"/>
				<path d="M156.82,89.9c-0.7-0.4-1.6-0.1-2.3-0.1c-1,0.1-2.1,0-3.1,0.2c-1.4,0.4-1.1,2.7,0.4,2.7c1.6-0.1,3.2,0,4.8-0.3
					C157.62,92,157.82,90.4,156.82,89.9z"/>
				<path d="M108.02,76.9c-0.7-0.2-1.5-0.4-2.2-0.7c-0.9-0.3-1.5,1.1-0.7,1.6c0.7,0.3,1.4,0.7,2.7,1.1c0.7,0.4,1.7,0.2,1.8-0.8
					C109.62,77.2,108.72,77.1,108.02,76.9z"/>
				<path d="M119.02,68.6c0,0,0,0-0.1-0.2c0,0,0,0,0-0.1c-0.3-0.4-0.4-1-0.8-1.3c0.4,0.3,0.3,0.4,0.1-0.1c-0.6-1-2.1-0.1-1.5,0.9
					v0.1c0,0.1,0,0.1,0.1,0.2l0,0l0,0l0,0c0,0.1,0,0.1,0.1,0.2c0.2,0.3,0.5,1,0.5,1c0,0.1,0,0.1,0.1,0.2l0,0
					c0.2,1.1,1.7,1.5,2.1,0.3C119.42,69.3,119.32,68.9,119.02,68.6z"/>
				<path d="M107.72,101.6c-0.5-0.5-1.2-0.1-1.7,0.2c-0.7,0.5-1.7,0.6-2.3,1.2c-0.7,0.7,0.4,1.9,1.2,1.4c0.9-0.4,1.8-0.8,2.6-1.3
					C108.12,102.8,108.22,102.1,107.72,101.6z"/>
				<path d="M116.42,110.4c-0.4,0-0.8,0.3-0.9,0.7c-0.4,1-0.5,1.2-0.9,2.1c-0.2,0.5-0.7,0.8-0.8,1.3c-0.1,0.7,0.9,1.2,1.4,0.7
					C115.92,114.4,118.82,110.7,116.42,110.4z"/>
				<path d="M143.82,112.8c-0.5-0.6-0.9-1.4-1.5-1.9c-0.8-0.6-1.9,0.4-1.4,1.3c0.5,0.7,1.1,1.4,1.6,2.2c0.3,0.4,0.5,0.9,1,1
					s1.1-0.2,1.2-0.7C144.82,113.9,144.12,113.3,143.82,112.8z"/>
				<path d="M150.82,102.3c-1.1-0.4-2.3-1-3.5-1.1c-1.1,0.1-1.2,1.7-0.1,1.9c1.1,0.3,2.1,0.7,3.2,1.1c0.4,0.2,0.9,0.4,1.4,0.1
					C152.82,103.6,152.02,102.5,150.82,102.3z"/>
				<path d="M153.02,77.1c-0.6-1.2-1.7-0.3-2.4,0.3c-1.1,0.8-1.2,1-2.4,1.8c-1.1,0.6-0.1,2.3,1,1.7c1.3-0.9,2.5-1.8,3.7-2.7
					C153.12,77.8,153.22,77.4,153.02,77.1z"/>
				<path d="M144.22,68.4c0.5-0.5,0.9-1.4,0.1-1.9c-0.7-0.4-1.3,0.2-1.7,0.8c-0.9,1.3-1.2,1.5-1.9,2.5c-0.6,1.1,1,2,1.7,0.9
					c0.1-0.1,0.2-0.3,0.3-0.4c0.1-0.1,0.2-0.2,0.2-0.3C143.22,69.9,144.12,68.6,144.22,68.4z"/>
			</g>
		</g>
	</g>
	<g id="Layer_16">
		<g>
			<path style="fill:#002B5C;" d="M406.4,136.7c-12.5,7.6-26,15.3-36.8,31.4c2.9,15.3,9,30,18.4,43.9c5.8-3.3,11.6-6.6,17.9-10
				C404,181.9,407.6,157.3,406.4,136.7z"/>
			<path style="fill:#4F9EF7;" d="M431.5,206.9c-0.7-24.1-2.6-42.8-10-61.2c-22.4,7.8-31,11.8-51.9,22.3c3,16.1,7.9,31.8,15.2,46.6
				C400.5,215.5,418.1,212.8,431.5,206.9z"/>
			<g>
				<g>
					<path style="fill:#FFFFFF;" d="M414,166.9L414,166.9C413.7,167.1,414.3,166.8,414,166.9z"/>
					<g>
						<path style="fill:#FFFFFF;" d="M420.6,174.6C420.7,174.6,420.7,174.6,420.6,174.6C420.7,174.6,420.7,174.5,420.6,174.6
							C420.7,174.5,420.7,174.6,420.6,174.6L420.6,174.6z"/>
						<path style="fill:#FFFFFF;" d="M418.4,162.8c-5.1-4.1-11.7-6.6-18.9-4.7c-0.3,0-0.5,0.2-0.7,0.3l0,0c-0.1,0-0.1,0-0.2,0
							c-0.3,0.1-0.6,0.2-0.8,0.5c-6.8,2.6-13.1,7.5-15.5,13.5c-0.5,0.2-0.7,0.8-0.4,1.2c-0.1,0.4-0.2,0.8-0.3,1.2
							c-0.6,1.8-0.6,4.1-0.5,5.5c0,0,0,0,0-0.1c0,0.3,0,0.5,0,0.8c0.1,0.9,0.2,1.9,0.4,2.7c0.2,0.7,0.5,1.3,0.8,2
							c0,0.2,0.1,0.5,0.4,0.6c0.3,0.4,0.5,0.9,0.8,1.3c4.9,7,17.4,8.2,25.8,5.3c8.1-3,14.6-9.7,14.8-16.7
							C424.2,171.4,422.4,166.5,418.4,162.8z M416.8,165.3c2.4,2.5,4,5.6,4.4,9c-0.2,0.1-0.4,0.2-0.6,0.3l0,0l-0.1,0.1
							c0,0,0,0,0.1-0.1c-0.1,0-0.1,0.1-0.2,0.2c-3,2.4-6.4,4.5-10.1,6.2c0-3.9-0.5-7.9-1.6-11.6c2-0.8,3.8-1.6,5.3-2.5l0,0
							c0.8-0.5,1.6-0.9,2.4-1.4C416.6,165.4,416.7,165.3,416.8,165.3z M392.7,173.6c4.5-0.7,9.4-1.9,13.7-3.4c0.7,2,1,4.2,1.1,6.4
							c0,1.4,0.2,3.3,0.2,5.4c-4.4,1.7-9,2.7-13.6,3.1C392.9,181.4,392.3,177.4,392.7,173.6z M404.9,159.6c-0.7-0.1,0,0,0.3,0
							c1.4,0.2,2.8,0.6,4.1,1c0.2,0.1,0.1,0,0,0c2.2,0.7,4.3,1.8,6,3.2c-0.3,0.2-0.5,0.3-0.8,0.5c-1.9,1.2-4.1,2.3-6.4,3.2
							c-1.3-3.4-3.2-6.2-5.9-7.9c0.3-0.1,0.6-0.1,0.8-0.1C402.3,159.6,404.5,159.6,404.9,159.6z M399,160.6c3.1,1.5,5.4,4.4,6.8,7.9
							c-4.2,1.5-8.7,2.6-12.8,3.2c0.6-3,1.8-5.8,3.7-8.4C397.4,162.3,398.2,161.4,399,160.6z M387.4,167.8c2.2-2.6,5.1-4.7,8.2-6.1
							l0,0c-2.5,3.1-4,6.7-4.7,10.3c-1.1,0.1-2.2,0.2-3.2,0.3c-1,0.1-2,0.1-3.1,0.1C385.3,170.8,386.2,169.2,387.4,167.8z
							 M384,174.1c2,0.1,4.2,0,6.6-0.3c-0.4,3.8,0.1,7.7,1.3,11.4c-2.4,0.1-5.2,0.1-7.1-0.1C383.2,181.9,382.9,177.9,384,174.1z
							 M389.6,190.1c-1.4-0.8-2.6-1.9-3.6-3.1c2.2,0.2,4.4,0.2,6.6,0.1c0.7,1.8,1.6,3.5,2.7,5.1C393.3,191.7,391.3,191,389.6,190.1z
							 M407.1,190c-0.1,0.9-0.5,1.2-0.5,1.9c-2.8,0.7-5.8,0.9-8.6,0.7c-0.5-0.7-1-1.4-1.5-2.1c-0.6-1.1-1.2-2.3-1.7-3.5
							c4.4-0.4,8.8-1.4,12.9-2.9C407.7,185.9,407.5,188,407.1,190z M414.2,188.2c-1.5,1.2-3.2,2.1-5,2.8c0.6-2.3,1-5.1,1.1-8.1
							c4-1.7,7.8-3.8,11.1-6.4c0,0.7-0.1,1.5-0.2,2.3C420.8,181.3,418,185.6,414.2,188.2z"/>
					</g>
				</g>
				<path style="fill:#FFFFFF;" d="M381.2,180.4L381.2,180.4C381.2,180.4,381.2,180.5,381.2,180.4z"/>
			</g>
			
				<text transform="matrix(0.9812 -0.1959 0.1957 0.9807 387.8783 210.7082)" style="fill:#FFFFFF; font-family:'Damion'; font-size:19.1578px;">travel</text>
		</g>
	</g>
</g>
</svg>
