<svg viewBox="0 0 500 500" xmlns="http://www.w3.org/2000/svg">
    <path
        d="m333.83 54.54s-74.5-26.49-147.63 15.69-110 125.9-141.73 193-13.47 135.26 42.38 166.37 93.79-14.75 172.11-17 99.38 9 164.37-35.28 76.74-148.73 25.47-226-114.97-96.78-114.97-96.78z"
        fill="#407bff" />
    <path
        d="m333.83 54.54s-74.5-26.49-147.63 15.69-110 125.9-141.73 193-13.47 135.26 42.38 166.37 93.79-14.75 172.11-17 99.38 9 164.37-35.28 76.74-148.73 25.47-226-114.97-96.78-114.97-96.78z"
        fill="#fff" opacity=".7" />
    <path
        d="m353 204.55c-34-11.19-101.88-30.82-102-30.87 0 0-66.85 19.68-100.87 30.87 10.42 51.38 13.89 102.77 24.31 154.16 23.4 16.49 77.23 50.23 77.64 49.93.51.37 53.26-33.44 76.65-49.93 10.35-51.39 13.82-102.78 24.27-154.16z"
        fill="none" stroke="#407bff" stroke-linecap="round" stroke-linejoin="round" stroke-width="5" />
    <path
        d="m338.64 216.78c-29.21-9.61-87.49-26.47-87.63-26.51s-57.41 16.9-86.62 26.51c8.94 44.13 11.93 88.26 20.87 132.4 20.1 14.16 66.33 43.13 66.68 42.88.44.31 45.74-28.73 65.83-42.88 8.94-44.18 11.93-88.27 20.87-132.4z"
        fill="none" />
    <path d="m185.26 349.18 65.64-61.84-86.51-70.56z" fill="#bfbfbf" />
    <path d="m317.89 350.44-68.72-63.1 89.47-70.56z" fill="#bfbfbf" />
    <path d="m250.9 285.93 87.74-69.15-88.6-26.25-85.65 26.25 84.78 69.15v1.41l.87-.71.86.71z"
        fill="#dbdbdb" />
    <path d="m317.89 350.44-67.85-62.29-64.78 61.03 66.74 44.11z" fill="#969696" />
    <path
        d="m205.44 458.11s-8.83 10.27-8.83 11.71a7.32 7.32 0 0 0 .41 2.47h24.45a60.8 60.8 0 0 0 0-6.78c-.2-3.7-.41-10.07-.41-10.07s1.65-2.47 1.23-4.52-2.87-2.47-3.49-2.47c0 0-6.24-1.74-9.25 1.23z"
        fill="#263238" stroke="#263238" stroke-linecap="round" stroke-linejoin="round" />
    <path d="m196.61 469.82a7.32 7.32 0 0 0 .41 2.47h24.45s.1-1.52.09-3.7h-24.38a3.29 3.29 0 0 0 -.57 1.23z"
        fill="#fff" stroke="#263238" stroke-linecap="round" stroke-linejoin="round" />
    <path d="m217.36 472.49.62-7.19" fill="none" stroke="#263238" stroke-linecap="round"
        stroke-linejoin="round" />
    <path
        d="m300.65 458.11s8.84 10.27 8.84 11.71a7.32 7.32 0 0 1 -.41 2.47h-24.45a60.8 60.8 0 0 1 0-6.78c.2-3.7.41-10.07.41-10.07s-1.65-2.47-1.24-4.52 2.88-2.47 3.5-2.47c0 0 6.24-1.74 9.24 1.23z"
        fill="#263238" stroke="#263238" stroke-linecap="round" stroke-linejoin="round" />
    <path d="m309.49 469.82a7.32 7.32 0 0 1 -.41 2.47h-24.45s-.11-1.52-.1-3.7h24.39a3.29 3.29 0 0 1 .57 1.23z"
        fill="#fff" stroke="#263238" stroke-linecap="round" stroke-linejoin="round" />
    <path d="m288.73 472.49-.61-7.19" fill="none" stroke="#263238" stroke-linecap="round"
        stroke-linejoin="round" />
    <path
        d="m296.3 213.05c-4.19-4-6.07-4.2-14.68-7.73a94.27 94.27 0 0 0 -13.48-4.64c-3.06-.47-6.12-.91-9.19-1.35-2.26-.33-4.46-1.22-6.78-1a111.12 111.12 0 0 0 -14.48 2.37 95 95 0 0 0 -13.47 4.64c-8.61 3.53-12.81 3.75-17 7.73s-29.82 32.93-29.6 36.86 6.41 7.95 11.26 6 27.39-26.93 27.39-26.93 11.73 27.11 11.73 32.63-1.1 7.51-1.54 8.61-9.28 25.18-11.93 36-4.42 29.59-3.53 40.19a123.72 123.72 0 0 1 -1.8 29.57 101.11 101.11 0 0 0 -3.31 25.84c0 13 .66 49.91.66 50.79v5.37l11.26-.88 8.4-41.52 13-53.89 12.81-46.59.87-.07.87.07 12.81 46.59 13 53.89 8.43 41.48 11.27.88v-5.3c0-.88.66-37.76.66-50.79a101.11 101.11 0 0 0 -3.29-25.87 123.72 123.72 0 0 1 -1.77-29.6c.88-10.6-.88-29.37-3.54-40.19s-13.8-34.89-14.24-36-1.55-3.09-1.55-8.61 11.71-32.6 11.71-32.6 24.84 25 29.7 26.94 8.72-2 8.95-6-25.4-32.94-29.6-36.89z"
        fill="#fff" stroke="#263238" stroke-linecap="round" stroke-linejoin="round" />
    <path
        d="m294.87 346.43c.88-10.6-.88-29.37-3.54-40.19s-13.8-34.89-14.24-36c-.16-.4-.42-.93-.67-1.71h-49.32c-.26.78-.51 1.31-.67 1.71-.44 1.11-9.28 25.18-11.93 36s-4.42 29.59-3.53 40.19a123.72 123.72 0 0 1 -1.77 29.57 101.11 101.11 0 0 0 -3.31 25.84c0 13 .66 49.91.66 50.79v5.37l11.26-.88 8.4-41.52 13-53.89 12.81-46.59.87-.07.87.07 12.81 46.59 13 53.89 8.43 41.48 11.27.88v-5.3c0-.88.66-37.76.66-50.79a101.11 101.11 0 0 0 -3.29-25.87 123.72 123.72 0 0 1 -1.77-29.57z"
        fill="#407bff" stroke="#263238" stroke-linecap="round" stroke-linejoin="round" />
    <path
        d="m283.05 239.06-12.05-6.06-5.7-32.69-2.29-.34 2.69 24.82h-31.78l2.57-23.79c-.59.16-1.4.4-2.42.72l-5.45 31.28-8.42 5.45c2 5 4.35 11 5.94 15.78h51.24c1.51-4.64 3.72-10.34 5.67-15.17z"
        fill="#407bff" stroke="#263238" stroke-linecap="round" stroke-linejoin="round" />
    <path d="m287.25 228.95-5.25-4.98 3.13 9.06z" fill="#263238" stroke="#263238" stroke-linecap="round"
        stroke-linejoin="round" />
    <path d="m216.27 228.95 4.62-4.64-3.07 8.72z" fill="#263238" stroke="#263238" stroke-linecap="round"
        stroke-linejoin="round" />
    <path d="m206.27 434.89c.15 9.59.28 17.37.28 17.77v5.34l11.26-.88 4.49-22.19z" fill="#fff"
        stroke="#263238" stroke-linecap="round" stroke-linejoin="round" />
    <path d="m205.44 458.11v-4.11c0-2.88 1.24-6.58 6.58-6.78s6.09 9.72 6.33 10.74z" fill="#263238"
        stroke="#263238" stroke-linecap="round" stroke-linejoin="round" />
    <path d="m283.45 434.48 4.57 22.6 11.27.88v-5.3c0-.41.13-8.4.29-18.18z" fill="#fff" stroke="#263238"
        stroke-linecap="round" stroke-linejoin="round" />
    <path d="m300.92 458.11v-4.11c0-2.88-1.23-6.58-6.57-6.78s-5.59 10-5.84 11.08z" fill="#263238"
        stroke="#263238" stroke-linecap="round" stroke-linejoin="round" />
    <path
        d="m217.62 459.42h-10.34a.73.73 0 0 1 -.73-.73.73.73 0 0 1 .73-.73h10.34a.73.73 0 0 1 .73.73.73.73 0 0 1 -.73.73z"
        fill="#fff" stroke="#263238" stroke-linecap="round" stroke-linejoin="round" stroke-width=".5" />
    <path
        d="m216.31 461.11h-10.31a.73.73 0 0 1 -.73-.73.73.73 0 0 1 .73-.73h10.34a.73.73 0 0 1 .73.73.73.73 0 0 1 -.76.73z"
        fill="#fff" stroke="#263238" stroke-linecap="round" stroke-linejoin="round" stroke-width=".5" />
    <path
        d="m215 462.8h-10.34a.73.73 0 0 1 -.73-.73.72.72 0 0 1 .73-.73h10.34a.73.73 0 0 1 .73.73.73.73 0 0 1 -.73.73z"
        fill="#fff" stroke="#263238" stroke-linecap="round" stroke-linejoin="round" stroke-width=".5" />
    <path
        d="m213.68 464.49h-10.34a.73.73 0 0 1 -.73-.73.73.73 0 0 1 .73-.73h10.34a.72.72 0 0 1 .73.73.73.73 0 0 1 -.73.73z"
        fill="#fff" stroke="#263238" stroke-linecap="round" stroke-linejoin="round" stroke-width=".5" />
    <path
        d="m288.88 459.42h10.34a.73.73 0 0 0 .73-.73.73.73 0 0 0 -.73-.73h-10.34a.73.73 0 0 0 -.73.73.73.73 0 0 0 .73.73z"
        fill="#fff" stroke="#263238" stroke-linecap="round" stroke-linejoin="round" stroke-width=".5" />
    <path
        d="m290.19 461.11h10.35a.73.73 0 0 0 .73-.73.73.73 0 0 0 -.73-.73h-10.35a.73.73 0 0 0 -.73.73.73.73 0 0 0 .73.73z"
        fill="#fff" stroke="#263238" stroke-linecap="round" stroke-linejoin="round" stroke-width=".5" />
    <path
        d="m291.51 462.8h10.34a.73.73 0 0 0 .73-.73.73.73 0 0 0 -.73-.73h-10.34a.72.72 0 0 0 -.73.73.73.73 0 0 0 .73.73z"
        fill="#fff" stroke="#263238" stroke-linecap="round" stroke-linejoin="round" stroke-width=".5" />
    <path
        d="m292.82 464.49h10.34a.73.73 0 0 0 .73-.73.72.72 0 0 0 -.73-.73h-10.34a.73.73 0 0 0 -.73.73.73.73 0 0 0 .73.73z"
        fill="#fff" stroke="#263238" stroke-linecap="round" stroke-linejoin="round" stroke-width=".5" />
    <path
        d="m188.94 243.73s24.9 19.39 29.19 22.25 8.57 3.47 8.78 4.9 1.22 3.88.2 5.51-3.47 7.35-4.9 8-5.51 1.22-6.53.61.82-1.83 1.43-2a17.73 17.73 0 0 1 1.84-.41 22.12 22.12 0 0 1 -4.7-5.3 44.27 44.27 0 0 1 -2.65-6.74s-22.25-7.75-28-11.22-8.17-6.74-5.31-11.43"
        fill="#fff" stroke="#263238" stroke-linecap="round" stroke-linejoin="round" />
    <path
        d="m323.65 254.76a6.21 6.21 0 0 0 1.84-3.88c.2-2.45-.21-8-2.45-15.51s-16.53-39.8-16.53-40.62 2-7.55 1-11.23-4.49-9.18-4.49-9.18l-11.62 3.26s1.43 12.05 4.49 14.7 5.11 8 6.33 12.45 3.27 18.17 4.69 26.53a41.37 41.37 0 0 0 5.52 15.72"
        fill="#fff" stroke="#263238" stroke-linecap="round" stroke-linejoin="round" />
    <path d="m306.81 174.41-5.01 11-24.76-8.44 7.17-15.72z" fill="#fff" stroke="#263238"
        stroke-linecap="round" stroke-linejoin="round" />
    <path d="m277.93 176.99 13.06-10.2 14.5 7.96-4.09 9.39z" fill="#407bff" />
    <path
        d="m300.18 197.2s-5.92-3.27-7.35-4.9-2-5.51-2.45-9a32.91 32.91 0 0 0 -2.65-8.16s1-1.43 3.26.2 3.27 7.14 3.27 7.14 5.51 2.86 6.33 6.33"
        fill="#fff" stroke="#263238" stroke-linecap="round" stroke-linejoin="round" />
    <path
        d="m231.73 147.9a49.47 49.47 0 0 0 -16.79-7.51c-9.27-2-19.65 11.48-21.42 24.07s-3.31 35.34-3.31 35.34h27.6s-4.63-34.68-1.54-45.06 14.13-5.08 14.13-5.08z"
        fill="#263238" stroke="#263238" stroke-linecap="round" stroke-linejoin="round" />
    <path d="m262.65 142.82s8.61-9.72 11.7-3.32-.66 13.48-3.75 15.68-3.76 1.11-4.2-.22-5.74-10.82-5.74-10.82z"
        fill="#263238" stroke="#263238" stroke-linecap="round" stroke-linejoin="round" />
    <path
        d="m242.55 191.62s-7.55 1.55-11.49 6.38-3.53 18.33-3.53 23v14.57l13.69.22s-1.76-19.65-2-24.51.22-12.15.88-14.36a32.76 32.76 0 0 1 2.45-5.3z"
        fill="#fff" stroke="#263238" stroke-linecap="round" stroke-linejoin="round" />
    <path
        d="m258.45 192.07s9.72 3.09 11.93 10.15 3.53 24.3 4 28.49.66 5.74.66 5.74-5.3 1.77-8.17 1.77a38.15 38.15 0 0 1 -5.52-.44s.44-24.29-.88-31.14a72.48 72.48 0 0 0 -2.65-10.38s.41-3.26.63-4.19z"
        fill="#fff" stroke="#263238" stroke-linecap="round" stroke-linejoin="round" />
    <path
        d="m239.9 208.41s-1.55-2.87-.44-9.28.44-15.68.44-15.68h-5.74c-3.32 0-10.6-2.87-11.49-8.17s.22-22.75 11.05-31.36 24.07-4 24.07-4a13 13 0 0 1 7.51 7.51c2.42 6 7.06 13.91 8.39 13.91s5.08 0 4.41 3.09a8.33 8.33 0 0 1 -2.2 4.42s-.22 10.38-.22 13.47-2 3.53-7.07 4a31.51 31.51 0 0 1 -3.31.11 8.52 8.52 0 0 0 -5.3 5c-1.55 4 .22 17.23.22 17.23"
        fill="#fff" stroke="#263238" stroke-linecap="round" stroke-linejoin="round" />
    <path d="m265.3 186.43a46 46 0 0 1 -15.68-3l11.27 5.48z" fill="#263238" stroke="#263238"
        stroke-linecap="round" stroke-linejoin="round" />
    <path d="m265.74 157.61 2.43 4.64" fill="none" stroke="#263238" stroke-linecap="round"
        stroke-linejoin="round" />
    <path d="m269.93 161.81a8.59 8.59 0 0 1 -5.08 2.21" fill="none" stroke="#263238" stroke-linecap="round"
        stroke-linejoin="round" />
    <path d="m265.3 153.86s-2.21-2.65-4.2-.22-1.77 3.75-1.77 3.75" fill="none" stroke="#263238"
        stroke-linecap="round" stroke-linejoin="round" />
    <path
        d="m257.79 140s-13.25-4.64-24.07 4-11.93 26-11.05 31.28 8.17 8.17 11.49 8.17h5.69l4.24-1.76c-4.63.66-11.26-4.86-9.93-9.5s8-2.21 9.93-.22 3.54-.22 5.75-4-.45-6.84-.45-10.38 7.73-9.93 12.37-10.15a8.35 8.35 0 0 0 3.26-.61 13 13 0 0 0 -7.23-6.83z"
        fill="#263238" stroke="#263238" stroke-linecap="round" stroke-linejoin="round" />
    <path
        d="m302.09 63-11.38 10.51 4.61 14.78-15.12 3.4-3.39 15.11-14.79-4.6-10.51 11.37-10.5-11.37-14.79 4.6-3.39-15.11-15.12-3.4 4.61-14.78-11.38-10.51 11.38-10.51-4.61-14.78 15.12-3.4 3.39-15.11 14.79 4.6 10.5-11.37 10.51 11.37 14.79-4.6 3.39 15.11 15.12 3.4-4.61 14.78z"
        fill="none" stroke="#263238" stroke-linecap="round" stroke-linejoin="round" />
    <circle cx="251.51" cy="63" fill="none" r="36.09" stroke="#263238" stroke-linecap="round"
        stroke-linejoin="round" />
    <path
        d="m433.62 229.76s.11-12.65-12.42-21.89-25.27-10.76-35.32-3.32-15.88 15.53-14.61 27.15 9.53 24.19 19.3 30.57 25.4 5.6 33.49-3.11 11.28-17.35 9.56-29.4z"
        fill="none" stroke="#263238" stroke-linecap="round" stroke-linejoin="round" />
    <path
        d="m432.08 229.91s.11-12-11.79-20.78-24-10.22-33.53-3.15-15 14.75-13.88 25.78 9.05 23 18.33 29 24.12 5.32 31.8-3 10.71-16.4 9.07-27.85z"
        fill="none" stroke="#263238" stroke-linecap="round" stroke-linejoin="round" />
    <path d="m404.02 209.55-1.4 10.5" fill="none" stroke="#263238" stroke-linecap="round"
        stroke-linejoin="round" />
    <path d="m398.38 211.52 1.9 7.08" fill="none" stroke="#263238" stroke-linecap="round"
        stroke-linejoin="round" />
    <path d="m393.32 212.49 4.5 7.55" fill="none" stroke="#263238" stroke-linecap="round"
        stroke-linejoin="round" />
    <path d="m389.6 214.33c.51.45 6.88 7.24 6.88 7.24" fill="none" stroke="#263238" stroke-linecap="round"
        stroke-linejoin="round" />
    <path d="m387.88 217.32 6.17 6.32" fill="none" stroke="#263238" stroke-linecap="round"
        stroke-linejoin="round" />
    <path d="m393.39 225.77-7.2-4.82" fill="none" stroke="#263238" stroke-linecap="round"
        stroke-linejoin="round" />
    <path d="m393 227.23-7.6-3.66" fill="none" stroke="#263238" stroke-linecap="round"
        stroke-linejoin="round" />
    <path d="m392.15 228.89-8.09-1.4" fill="none" stroke="#263238" stroke-linecap="round"
        stroke-linejoin="round" />
    <path d="m394.19 230.68-8.91.89" fill="none" stroke="#263238" stroke-linecap="round"
        stroke-linejoin="round" />
    <path d="m393.95 231.97-7.95 3.24" fill="none" stroke="#263238" stroke-linecap="round"
        stroke-linejoin="round" />
    <path d="m395.54 234.27-7.8 3.07" fill="none" stroke="#263238" stroke-linecap="round"
        stroke-linejoin="round" />
    <path d="m396.32 236.46-8.5 4.55" fill="none" stroke="#263238" stroke-linecap="round"
        stroke-linejoin="round" />
    <path d="m397.23 238.16-8.29 5.34" fill="none" stroke="#263238" stroke-linecap="round"
        stroke-linejoin="round" />
    <path d="m397.85 240.2-6.64 6.19" fill="none" stroke="#263238" stroke-linecap="round"
        stroke-linejoin="round" />
    <path d="m399.97 240.86-3.43 8.71" fill="none" stroke="#263238" stroke-linecap="round"
        stroke-linejoin="round" />
    <path d="m402.37 240.86-2.27 9.43" fill="none" stroke="#263238" stroke-linecap="round"
        stroke-linejoin="round" />
    <path d="m404.85 242.14-.31 9.95" fill="none" stroke="#263238" stroke-linecap="round"
        stroke-linejoin="round" />
    <path d="m407.76 242.59 3.39 10.19" fill="none" stroke="#263238" stroke-linecap="round"
        stroke-linejoin="round" />
    <path d="m410.08 241.32 6.79 8.36" fill="none" stroke="#263238" stroke-linecap="round"
        stroke-linejoin="round" />
    <path d="m412.25 240.22 9 7.9" fill="none" stroke="#263238" stroke-linecap="round"
        stroke-linejoin="round" />
    <path d="m412.89 237.78 11.93 6.27" fill="none" stroke="#263238" stroke-linecap="round"
        stroke-linejoin="round" />
    <path d="m414.21 235.93 9.96 3.04" fill="none" stroke="#263238" stroke-linecap="round"
        stroke-linejoin="round" />
    <path d="m412.96 233.94 9.01-1.71" fill="none" stroke="#263238" stroke-linecap="round"
        stroke-linejoin="round" />
    <path d="m412.99 231.85 9.05-3.47" fill="none" stroke="#263238" stroke-linecap="round"
        stroke-linejoin="round" />
    <path d="m420.86 224.94-10.21 5.46" fill="none" stroke="#263238" stroke-linecap="round"
        stroke-linejoin="round" />
    <path d="m419.95 220.84-8.36 6.78" fill="none" stroke="#263238" stroke-linecap="round"
        stroke-linejoin="round" />
    <path d="m417.39 218.29-5.79 6.93" fill="none" stroke="#263238" stroke-linecap="round"
        stroke-linejoin="round" />
    <path d="m414.78 215.09-5.31 9.47" fill="none" stroke="#263238" stroke-linecap="round"
        stroke-linejoin="round" />
    <path d="m411.44 215.47-3.2 7.41" fill="none" stroke="#263238" stroke-linecap="round"
        stroke-linejoin="round" />
    <path d="m409.09 213.7-2.5 8.33" fill="none" stroke="#263238" stroke-linecap="round"
        stroke-linejoin="round" />
    <path d="m407.09 212.55-2.56 9.77" fill="none" stroke="#263238" stroke-linecap="round"
        stroke-linejoin="round" />
    <circle cx="394.17" cy="225.56" fill="#263238" r="1.36"
        transform="matrix(.54449265 -.83876561 .83876561 .54449265 -9.65 433.35)" />
    <path d="m396.48 221.57a1.36 1.36 0 1 1 -.13-1.92 1.37 1.37 0 0 1 .13 1.92z" fill="#263238" />
    <path d="m401.3 219.49a1.36 1.36 0 1 1 -.12-1.91 1.36 1.36 0 0 1 .12 1.91z" fill="#263238" />
    <path d="m407.61 222.92a1.36 1.36 0 1 1 -.13-1.91 1.37 1.37 0 0 1 .13 1.91z" fill="#263238" />
    <path d="m413.36 222.87a1.35 1.35 0 1 1 -.12-1.91 1.35 1.35 0 0 1 .12 1.91z" fill="#263238" />
    <path d="m412.34 226.77a1.35 1.35 0 1 1 -.13-1.91 1.36 1.36 0 0 1 .13 1.91z" fill="#263238" />
    <path d="m413.41 231a1.35 1.35 0 1 1 -.12-1.92 1.36 1.36 0 0 1 .12 1.92z" fill="#263238" />
    <path d="m415.19 236.19a1.36 1.36 0 1 1 -.13-1.91 1.35 1.35 0 0 1 .13 1.91z" fill="#263238" />
    <path d="m415 240.52a1.35 1.35 0 1 1 -.12-1.91 1.35 1.35 0 0 1 .12 1.91z" fill="#263238" />
    <path d="m412.18 244.07a1.36 1.36 0 1 1 -.12-1.91 1.35 1.35 0 0 1 .12 1.91z" fill="#263238" />
    <path d="m409.14 246.51a1.36 1.36 0 1 1 -.13-1.92 1.36 1.36 0 0 1 .13 1.92z" fill="#263238" />
    <path d="m405.74 245.93a1.36 1.36 0 1 1 -.12-1.92 1.36 1.36 0 0 1 .12 1.92z" fill="#263238" />
    <path d="m402.51 245.5a1.35 1.35 0 1 1 -.12-1.92 1.36 1.36 0 0 1 .12 1.92z" fill="#263238" />
    <path d="m396.29 243.34a1.36 1.36 0 1 1 -.12-1.91 1.35 1.35 0 0 1 .12 1.91z" fill="#263238" />
    <path d="m397 239.14a1.36 1.36 0 1 1 -.13-1.92 1.36 1.36 0 0 1 .13 1.92z" fill="#263238" />
    <path d="m394.08 233.88a1.35 1.35 0 1 1 -.08-1.88 1.36 1.36 0 0 1 .08 1.88z" fill="#263238" />
    <path d="m390.86 228.65a1.36 1.36 0 1 1 -.13-1.91 1.37 1.37 0 0 1 .13 1.91z" fill="#263238" />
    <path d="m409.47 224.56a1.35 1.35 0 1 1 -.12-1.91 1.36 1.36 0 0 1 .12 1.91z" fill="#263238" />
    <path d="m397.6 224.05a1.35 1.35 0 1 1 -.13-1.91 1.35 1.35 0 0 1 .13 1.91z" fill="#263238" />
    <circle cx="372.23" cy="123.17" fill="none" r="33.76" stroke="#263238" stroke-linecap="round"
        stroke-linejoin="round" />
    <circle cx="372.23" cy="123.17" fill="none" r="31.17" stroke="#263238" stroke-linecap="round"
        stroke-linejoin="round" />
    <path
        d="m367.53 99.46 3.79 20.18a1 1 0 0 1 -1.54 1l-17.38-11.64a4.35 4.35 0 0 1 .11-7.23l8.39-5a4.36 4.36 0 0 1 6.63 2.69z"
        fill="none" stroke="#263238" stroke-linecap="round" stroke-linejoin="round" />
    <path
        d="m352.15 109.73 16.94 11.59a1 1 0 0 1 -.37 1.81l-20.53 4a4.36 4.36 0 0 1 -5-5.19l2.37-9.5a4.36 4.36 0 0 1 6.59-2.71z"
        fill="none" stroke="#263238" stroke-linecap="round" stroke-linejoin="round" />
    <path
        d="m348.53 127.86 20.17-3.78a1 1 0 0 1 1 1.54l-11.63 17.38a4.36 4.36 0 0 1 -7.24-.11l-5-8.39a4.36 4.36 0 0 1 2.7-6.64z"
        fill="none" stroke="#263238" stroke-linecap="round" stroke-linejoin="round" />
    <path
        d="m358.79 143.25 11.59-16.94a1 1 0 0 1 1.81.37l4.05 20.53a4.35 4.35 0 0 1 -5.19 5l-9.5-2.36a4.36 4.36 0 0 1 -2.76-6.6z"
        fill="none" stroke="#263238" stroke-linecap="round" stroke-linejoin="round" />
    <path
        d="m376.93 146.87-3.79-20.18a1 1 0 0 1 1.55-1l17.37 11.65a4.35 4.35 0 0 1 -.1 7.23l-8.4 5.05a4.35 4.35 0 0 1 -6.63-2.75z"
        fill="none" stroke="#263238" stroke-linecap="round" stroke-linejoin="round" />
    <path
        d="m392.31 136.61-16.94-11.61a1 1 0 0 1 .37-1.81l20.53-4a4.36 4.36 0 0 1 5 5.19l-2.37 9.5a4.36 4.36 0 0 1 -6.59 2.73z"
        fill="none" stroke="#263238" stroke-linecap="round" stroke-linejoin="round" />
    <path
        d="m395.93 118.47-20.17 3.78a1 1 0 0 1 -1-1.54l11.66-17.38a4.36 4.36 0 0 1 7.23.11l5 8.39a4.36 4.36 0 0 1 -2.72 6.64z"
        fill="none" stroke="#263238" stroke-linecap="round" stroke-linejoin="round" />
    <path
        d="m385.67 103.09-11.59 16.91a1 1 0 0 1 -1.81-.38l-4-20.52a4.36 4.36 0 0 1 5.19-5l9.51 2.36a4.36 4.36 0 0 1 2.7 6.63z"
        fill="none" stroke="#263238" stroke-linecap="round" stroke-linejoin="round" />
    <path
        d="m355.76 91.39a36.88 36.88 0 0 0 -17.37-10.59c-11-3-18.22 3-22.88 7.62a44.41 44.41 0 0 1 -11 7.63 38.3 38.3 0 0 0 19.07 1.69c11-1.69 16.13-7.94 19.06-8.89 7.36-2.4 13.12 2.54 13.12 2.54z"
        fill="none" stroke="#263238" stroke-linecap="round" stroke-linejoin="round" />
    <path
        d="m72.48 147.33s-6.63 3.08-6.34 8.46 1.12 6.8.59 23.76-1.65 27.79 5.33 37.87 23.68 21.4 29.09 22 10.78-2 12.42-3.82 4-4.69 6.26-4.1 7.84-3 9.32-9 3.85-20.5-3.62-35.66-18.91-26.38-26.21-35.77-13.59-8.45-15.61-7.68l-3.8 1.43s-3.1-.57-7.43 2.51z"
        fill="none" stroke="#263238" stroke-linecap="round" stroke-linejoin="round" />
    <path d="m87.31 166.73a2 2 0 1 1 -2.61-1.18 2 2 0 0 1 2.61 1.18z" fill="#263238" />
    <path d="m88.89 170.9a2 2 0 1 1 -2.61-1.18 2 2 0 0 1 2.61 1.18z" fill="#263238" />
    <path d="m102.57 181.89a2 2 0 1 1 -2.61-1.18 2 2 0 0 1 2.61 1.18z" fill="#263238" />
    <path d="m101 187.17a2 2 0 1 1 -2.61-1.17 2 2 0 0 1 2.61 1.17z" fill="#263238" />
    <path d="m104.37 197.57a2 2 0 1 1 -1-2.68 2 2 0 0 1 1 2.68z" fill="#263238" />
    <path d="m101.07 208.51a2 2 0 1 1 -1-2.68 2 2 0 0 1 1 2.68z" fill="#263238" />
    <path d="m105.34 211.26a2 2 0 1 1 -1-2.68 2 2 0 0 1 1 2.68z" fill="#263238" />
    <path d="m102.28 204a2 2 0 1 1 -1-2.68 2 2 0 0 1 1 2.68z" fill="#263238" />
    <path d="m103.3 206.7a2 2 0 1 1 -1-2.68 2 2 0 0 1 1 2.68z" fill="#263238" />
    <path d="m88.66 201.72a2 2 0 1 1 -1-2.68 2 2 0 0 1 1 2.68z" fill="#263238" />
    <path d="m99 178.06a2 2 0 1 1 -2.61-1.18 2 2 0 0 1 2.61 1.18z" fill="#263238" />
    <path d="m100.38 193.22a2 2 0 1 1 -2.61-1.22 2 2 0 0 1 2.61 1.22z" fill="#263238" />
    <path d="m95.8 187.52a2 2 0 1 1 -2.61-1.18 2 2 0 0 1 2.61 1.18z" fill="#263238" />
    <path d="m108.64 191.56a2 2 0 1 1 -2.62-1.18 2 2 0 0 1 2.62 1.18z" fill="#263238" />
    <path d="m110.34 204.65a2 2 0 1 1 -2.61-1.19 2 2 0 0 1 2.61 1.19z" fill="#263238" />
    <path d="m115 220.43a2 2 0 1 1 -2.62-1.18 2 2 0 0 1 2.62 1.18z" fill="#263238" />
    <path d="m110.17 201a2 2 0 1 1 -2.62-1.18 2 2 0 0 1 2.62 1.18z" fill="#263238" />
    <path d="m105.51 200.82a2 2 0 1 1 -2.61-1.18 2 2 0 0 1 2.61 1.18z" fill="#263238" />
    <path d="m108.47 211.65a2 2 0 1 1 -2.62-1.18 2 2 0 0 1 2.62 1.18z" fill="#263238" />
    <path d="m111.73 197.18a2 2 0 1 1 -2.62-1.18 2 2 0 0 1 2.62 1.18z" fill="#263238" />
    <path d="m107.26 202.9a2 2 0 1 1 -2.61-1.18 2 2 0 0 1 2.61 1.18z" fill="#263238" />
    <path d="m111.61 210.18a2 2 0 1 1 -2.61-1.18 2 2 0 0 1 2.61 1.18z" fill="#263238" />
    <path d="m112.25 217.86a2 2 0 1 1 -2.62-1.18 2 2 0 0 1 2.62 1.18z" fill="#263238" />
    <path d="m111.64 214.29a2 2 0 1 1 -2.61-1.18 2 2 0 0 1 2.61 1.18z" fill="#263238" />
    <path d="m113.53 223.68a2 2 0 1 1 -2.62-1.18 2 2 0 0 1 2.62 1.18z" fill="#263238" />
    <path d="m99.17 214.64a2 2 0 1 1 -2.61-1.18 2 2 0 0 1 2.61 1.18z" fill="#263238" />
    <path d="m94.31 176.29a2 2 0 1 1 -2.61-1.18 2 2 0 0 1 2.61 1.18z" fill="#263238" />
    <path d="m91.84 185.14a2 2 0 1 1 -2.62-1.14 2 2 0 0 1 2.62 1.14z" fill="#263238" />
    <path d="m95 189.55a2 2 0 1 1 -2.62-1.19 2 2 0 0 1 2.62 1.19z" fill="#263238" />
    <path d="m84.2 186.73a2 2 0 1 1 -2.61-1.18 2 2 0 0 1 2.61 1.18z" fill="#263238" />
    <path d="m82.65 192.48a2 2 0 1 1 -2.65-1.18 2 2 0 0 1 2.65 1.18z" fill="#263238" />
    <path d="m84.39 195.38a2 2 0 1 1 -2.61-1.19 2 2 0 0 1 2.61 1.19z" fill="#263238" />
    <path d="m88.9 195.77a2 2 0 1 1 -2.61-1.18 2 2 0 0 1 2.61 1.18z" fill="#263238" />
    <path d="m95.88 205.26a2 2 0 1 1 -2.62-1.18 2 2 0 0 1 2.62 1.18z" fill="#263238" />
    <path d="m84.45 202.59a2 2 0 1 1 -2.61-1.18 2 2 0 0 1 2.61 1.18z" fill="#263238" />
    <path d="m87.25 207.22a2 2 0 1 1 -2.61-1.22 2 2 0 0 1 2.61 1.22z" fill="#263238" />
    <path d="m90.92 207.74a2 2 0 1 1 -2.62-1.18 2 2 0 0 1 2.62 1.18z" fill="#263238" />
    <path d="m91.23 174.54a2 2 0 1 1 -2.61-1.18 2 2 0 0 1 2.61 1.18z" fill="#263238" />
    <path d="m95.12 182.28a2 2 0 1 1 -2.61-1.18 2 2 0 0 1 2.61 1.18z" fill="#263238" />
    <path d="m92.63 180.6a2 2 0 1 1 -2.63-1.18 2 2 0 0 1 2.63 1.18z" fill="#263238" />
    <path d="m90 190.18a2 2 0 1 1 -2.59-1.18 2 2 0 0 1 2.59 1.18z" fill="#263238" />
    <path d="m85.55 180.89a2 2 0 1 1 -2.61-1.19 2 2 0 0 1 2.61 1.19z" fill="#263238" />
    <path d="m95.06 196.68a2 2 0 1 1 -2.61-1.18 2 2 0 0 1 2.61 1.18z" fill="#263238" />
    <path d="m98.22 200.34a2 2 0 1 1 -2.61-1.19 2 2 0 0 1 2.61 1.19z" fill="#263238" />
    <path d="m99 202.79a2 2 0 1 1 -2.61-1.18 2 2 0 0 1 2.61 1.18z" fill="#263238" />
    <path d="m83.48 199a2 2 0 1 1 -2.61-1.18 2 2 0 0 1 2.61 1.18z" fill="#263238" />
    <path d="m88.3 203.59a2 2 0 1 1 -2.61-1.18 2 2 0 0 1 2.61 1.18z" fill="#263238" />
    <path d="m95.36 211.59a2 2 0 1 1 -2.61-1.18 2 2 0 0 1 2.61 1.18z" fill="#263238" />
    <path d="m98.15 209.57a2 2 0 1 1 -2.61-1.18 2 2 0 0 1 2.61 1.18z" fill="#263238" />
    <path d="m91 212.71a2 2 0 1 1 -2.61-1.18 2 2 0 0 1 2.61 1.18z" fill="#263238" />
    <path d="m95 216.1a2 2 0 1 1 -2.61-1.18 2 2 0 0 1 2.61 1.18z" fill="#263238" />
    <path d="m106 206.24a2 2 0 1 1 -2.61-1.18 2 2 0 0 1 2.61 1.18z" fill="#263238" />
    <path d="m109.8 222.56a2 2 0 1 1 -2.61-1.18 2 2 0 0 1 2.61 1.18z" fill="#263238" />
    <path d="m107.1 216.82a2 2 0 1 1 -2.61-1.19 2 2 0 0 1 2.61 1.19z" fill="#263238" />
    <path d="m102.41 215.52a2 2 0 1 1 -2.61-1.18 2 2 0 0 1 2.61 1.18z" fill="#263238" />
    <path d="m103.85 219.33a2 2 0 1 1 -2.61-1.18 2 2 0 0 1 2.61 1.18z" fill="#263238" />
    <path d="m104.33 212.05a2 2 0 1 1 -2.61-1.19 2 2 0 0 1 2.61 1.19z" fill="#263238" />
    <path d="m109.79 218.38a2 2 0 1 1 -2.61-1.18 2 2 0 0 1 2.61 1.18z" fill="#263238" />
    <path d="m104.86 186.68a2 2 0 1 1 -2.61-1.18 2 2 0 0 1 2.61 1.18z" fill="#263238" />
    <path d="m101.73 185.89a2 2 0 1 1 2.79.62 2 2 0 0 1 -2.79-.62z" fill="#263238" />
    <g fill="none">
        <path d="m83.3 145.71s-2.06 2.39-.7 6.72 6.37 11.87 9 16 15 10.49 19.17 21.57" stroke="#263238"
            stroke-linecap="round" stroke-linejoin="round" />
        <path d="m112 193.29a62.35 62.35 0 0 1 2 16.71" stroke="#263238" stroke-linecap="round"
            stroke-linejoin="round" />
        <path d="m82.74 159.92a99 99 0 0 0 -1.83 14.42c-.28 7.1-4 13.07-1.43 24.76" stroke="#263238"
            stroke-linecap="round" stroke-linejoin="round" />
        <path d="m95.27 221.68s5.82 1.85 9.59 2.58" stroke="#263238" stroke-linecap="round"
            stroke-linejoin="round" />
        <path
            d="m115.59 90.25a7.56 7.56 0 0 0 -4.47 6.35 10.29 10.29 0 0 0 2.2 7.58s-4.55 3.95-3.34 8.62a10.54 10.54 0 0 0 4.68 6.51s-.41 5.92 6 9 10.46.42 12-1.88 2.19-3.52 2.19-3.52 7.46-2.11 8.73-6.16-1.75-8.07-5.23-9.91c0 0 3.58-2.56 4-5.3 0 0 3.95 5.11 8.44 3.64s7.25-5 4.26-9.22c0 0 4.18.06 6.71-1.24a7.44 7.44 0 0 0 3.37-3.17 7.51 7.51 0 0 0 5.36-.72c2.58-1.52 5.46-4.56 4-8.71s-4-5.46-4-5.46-3.91-5.32-7.34-7.38-5.35-1.55-5.35-1.55-5.7-3.76-12-2.78-7.16 2.85-7.16 2.85a27.3 27.3 0 0 0 -13 3.14c-6.38 3.46-7 9.13-7 9.13a8.36 8.36 0 0 0 -3.05 10.18z"
            stroke="#263238" stroke-linecap="round" stroke-linejoin="round" />
        <path
            d="m147.09 76.93c-9.46.23-13.1 9.24-13.1 9.24s-1-.09-3.23-.32a11.16 11.16 0 0 0 -4.71.86c-15.36 7.53-6.91 21.72-6.91 21.72s-5.54 3.29-4.65 9.48"
            stroke="#263238" stroke-linecap="round" stroke-linejoin="round" />
        <path
            d="m138.36 121.52s9.5-1 14.71 3.45 5.11 10.56 5.68 11.13 7.06-2.42 10.6-4.76 6.86-5.86 6.78-7.12-7.29-10.44-6.47-21.16.78-12.19.78-12.19"
            stroke="#263238" stroke-linecap="round" stroke-linejoin="round" />
        <path d="m150.74 105.22a25 25 0 0 0 5.51 9.17" stroke="#263238" stroke-linecap="round"
            stroke-linejoin="round" />
        <path d="m158.88 95.88s.58 10 3.1 12.08 6.08-7 3.1-16.37" stroke="#263238" stroke-linecap="round"
            stroke-linejoin="round" />
        <path d="m161.06 106.75s1.08 3.17 6.22 4.67" stroke="#263238" stroke-linecap="round"
            stroke-linejoin="round" />
        <path d="m142.27 110.41s3.21-.14 8.38 5.68" stroke="#263238" stroke-linecap="round"
            stroke-linejoin="round" />
        <path d="m143.49 113.24s2.06-1.36 3.85-.4" stroke="#263238" stroke-linecap="round"
            stroke-linejoin="round" />
        <path
            d="m401.38 324.58a4 4 0 0 1 -.8-5.51c2.16-3.27 9.43-7.08 12.34-6.89s4.11 1.15 5 .43 2.21-2.49-.07-3.32-7.32-1.26-13.48 1.94-8.86 7.41-10.69 7.1-3.21-3.14-6.44-5.78-11.44-2.41-16.16 2.64-10.05 18.05-13.31 26.21-2.13 16.13 2 18.55 5.49.94 5.49.94a10.45 10.45 0 0 0 8.08 6c5.9.68 7.08-.9 7.08-.9a20.53 20.53 0 0 0 7.72-6.31c3.42-4.55 7.29-11.61 11.88-14.72s9.21-9.72 7.51-15-6.15-5.38-6.15-5.38z"
            stroke="#263238" stroke-linecap="round" stroke-linejoin="round" />
        <path d="m403.64 339.25s-3.24 3.39-9.75 8.9-6.57 12.53-10.81 16.35" stroke="#263238"
            stroke-linecap="round" stroke-linejoin="round" />
        <path d="m383.71 314.75s9.3.9 9.3 8.21" stroke="#263238" stroke-linecap="round"
            stroke-linejoin="round" />
        <path d="m389.52 324.19s4.45-2.44 8.39-.13 4.86 4.61 4.86 4.61" stroke="#263238"
            stroke-linecap="round" stroke-linejoin="round" />
        <path d="m367.36 354.81a22.42 22.42 0 0 0 -1.25 2.53" stroke="#263238" stroke-linecap="round"
            stroke-linejoin="round" />
        <path d="m387.94 326s-4 2.46-9.2 11c-3.39 5.53-7 10.71-9.58 14.79" stroke="#263238"
            stroke-linecap="round" stroke-linejoin="round" />
        <path
            d="m87.43 275.27c-1 .12-2 .28-2.94.47-13.76 2.63-20.34 14.3-21.73 26.5a39.37 39.37 0 0 0 5.05 24.76c4.75 7.92 12.56 12.31 19.61 18.21 6.84 5.72 12.22 15.78 23 14.64 17.64-1.87 11.9-21.63 12.46-32.53 1.12-22.12-3.14-56.23-35.45-52.05z"
            stroke="#263238" stroke-linecap="round" stroke-linejoin="round" />
        <path
            d="m88 279.8c-.86.11-1.74.25-2.62.42-12.27 2.34-18.14 12.78-19.38 23.65a35.14 35.14 0 0 0 4.5 22.06c4.25 7.08 11.21 11 17.51 16.26 6.11 5.1 10.9 14.08 20.52 13.07 15.74-1.67 10.62-19.31 11.12-29 1.01-19.75-2.79-50.19-31.65-46.46z"
            stroke="#263238" stroke-linecap="round" stroke-linejoin="round" />
        <ellipse cx="94.83" cy="311.67" rx="14.14" ry="15.87" stroke="#263238" stroke-linecap="round"
            stroke-linejoin="round"
            transform="matrix(.87495795 -.4841989 .4841989 .87495795 -139.04 84.88)" />
        <path
            d="m67.58 108.21a16.22 16.22 0 0 0 -8.26 3.88c-3.21 2.86-5.64 6.49-8.65 9.57 4.18.81 8.15 2.43 12.25 3.56s8.51 1.76 12.59.55 7.72-4.63 8.12-8.87l5.62-.82v-1.65l-6.35 1.1s-3.59-4.24-4.08-4.62a14.74 14.74 0 0 0 -11.24-2.7z"
            stroke="#263238" stroke-linecap="round" stroke-linejoin="round" />
        <path d="m83.63 116.9s-4.33-.26-15.1 1.67a147.3 147.3 0 0 1 -16 2.21" stroke="#263238"
            stroke-linecap="round" stroke-linejoin="round" />
        <path d="m57.48 116.91 4.98 3.04-2.49 3.04" stroke="#263238" stroke-linecap="round"
            stroke-linejoin="round" />
        <path d="m65.22 113.6 4.42 5.25s-3.59 4.42-3.59 5.24" stroke="#263238" stroke-linecap="round"
            stroke-linejoin="round" />
        <path d="m73.23 111.39 3.59 5.8-4.42 6.35" stroke="#263238" stroke-linecap="round"
            stroke-linejoin="round" />
        <path
            d="m177.87 43.56a16.26 16.26 0 0 0 -7.39-5.35c-4.06-1.44-8.41-1.81-12.56-3 1.31 4 1.8 8.31 2.8 12.45s2.57 8.34 5.6 11.34 7.78 4.53 11.68 2.83l3.44 4.53 1.45-.8-4-5s2-5.19 2.08-5.8a14.75 14.75 0 0 0 -3.1-11.2z"
            stroke="#263238" stroke-linecap="round" stroke-linejoin="round" />
        <path d="m178 61.81s-1.85-3.91-8.75-12.41a147.61 147.61 0 0 1 -9.67-13" stroke="#263238"
            stroke-linecap="round" stroke-linejoin="round" />
        <path d="m165.37 38.93-.26 5.82-3.86-.71" stroke="#263238" stroke-linecap="round"
            stroke-linejoin="round" />
        <path d="m172 44.1-2.46 6.4s-5.61-1-6.33-.61" stroke="#263238" stroke-linecap="round"
            stroke-linejoin="round" />
        <path d="m177.81 50.05-3.35 5.94-7.69-.8" stroke="#263238" stroke-linecap="round"
            stroke-linejoin="round" />
        <path
            d="m337 60.38a16.28 16.28 0 0 0 3.8-8.29c.62-4.26.14-8.6.45-12.89-3.72 2.07-7.8 3.39-11.66 5.17s-7.63 4.14-10 7.7-2.93 8.51-.5 12l-3.77 4.25 1.07 1.26 4.14-4.94s5.48.94 6.1.91a14.79 14.79 0 0 0 10.37-5.17z"
            stroke="#263238" stroke-linecap="round" stroke-linejoin="round" />
        <path d="m319.16 64.08s3.48-2.59 10.47-11a146.3 146.3 0 0 1 10.82-12" stroke="#263238"
            stroke-linecap="round" stroke-linejoin="round" />
        <path d="m339.14 47.22-5.76.88-.06-3.93" stroke="#263238" stroke-linecap="round"
            stroke-linejoin="round" />
        <path d="m335.37 54.74-6.77-1.17s-.1-5.69-.63-6.32" stroke="#263238" stroke-linecap="round"
            stroke-linejoin="round" />
        <path d="m330.67 61.59-6.49-2.12-.72-7.7" stroke="#263238" stroke-linecap="round"
            stroke-linejoin="round" />
        <path
            d="m415.61 173.65a16.19 16.19 0 0 0 9.1-.63c4-1.5 7.62-4 11.53-5.78-3.59-2.27-6.71-5.22-10.12-7.76s-7.29-4.72-11.53-5.07-8.88 1.51-10.78 5.32l-5.54-1.27-.6 1.54 6.32 1.27c-.05 0 1.8 5.26 2.12 5.79a14.76 14.76 0 0 0 9.5 6.59z"
            stroke="#263238" stroke-linecap="round" stroke-linejoin="round" />
        <path d="m403.81 159.73s3.93 1.81 14.67 3.92a146.81 146.81 0 0 1 15.73 3.74" stroke="#263238"
            stroke-linecap="round" stroke-linejoin="round" />
        <path d="m428.17 169.19-3.53-4.63 3.42-1.93" stroke="#263238" stroke-linecap="round"
            stroke-linejoin="round" />
        <path d="m419.76 169.48-2.21-6.48s4.95-2.82 5.25-3.59" stroke="#263238" stroke-linecap="round"
            stroke-linejoin="round" />
        <path d="m411.5 168.64-1.25-6.71 6.43-4.32" stroke="#263238" stroke-linecap="round"
            stroke-linejoin="round" />
        <path
            d="m436.85 294.17a16.2 16.2 0 0 0 9.1-.63c4-1.5 7.61-4 11.53-5.78-3.6-2.27-6.71-5.22-10.13-7.76s-7.29-4.72-11.53-5.07-8.88 1.51-10.78 5.32l-5.54-1.25-.6 1.55 6.32 1.27s1.81 5.26 2.13 5.78a14.72 14.72 0 0 0 9.5 6.57z"
            stroke="#263238" stroke-linecap="round" stroke-linejoin="round" />
        <path d="m425 280.25s3.93 1.81 14.67 3.92a146.81 146.81 0 0 1 15.73 3.74" stroke="#263238"
            stroke-linecap="round" stroke-linejoin="round" />
        <path d="m449.41 289.71-3.53-4.63 3.42-1.93" stroke="#263238" stroke-linecap="round"
            stroke-linejoin="round" />
        <path d="m441 290-2.22-6.49s5-2.82 5.25-3.59" stroke="#263238" stroke-linecap="round"
            stroke-linejoin="round" />
        <path d="m432.73 289.16-1.24-6.71 6.42-4.32" stroke="#263238" stroke-linecap="round"
            stroke-linejoin="round" />
        <path
            d="m342.59 399.11a16.19 16.19 0 0 0 9.1-.62c4-1.5 7.61-4 11.53-5.79-3.6-2.27-6.71-5.22-10.12-7.76s-7.3-4.71-11.54-5.07-8.87 1.52-10.78 5.32l-5.53-1.27-.6 1.54 6.32 1.27c-.05 0 1.8 5.26 2.12 5.79a14.74 14.74 0 0 0 9.5 6.59z"
            stroke="#263238" stroke-linecap="round" stroke-linejoin="round" />
        <path d="m330.78 385.19s3.93 1.82 14.67 3.92a145.46 145.46 0 0 1 15.74 3.75" stroke="#263238"
            stroke-linecap="round" stroke-linejoin="round" />
        <path d="m355.15 394.66-3.53-4.64 3.42-1.93" stroke="#263238" stroke-linecap="round"
            stroke-linejoin="round" />
        <path d="m346.74 394.94-2.22-6.49s5-2.82 5.25-3.59" stroke="#263238" stroke-linecap="round"
            stroke-linejoin="round" />
        <path d="m338.48 394.1-1.25-6.71 6.42-4.32" stroke="#263238" stroke-linecap="round"
            stroke-linejoin="round" />
        <path
            d="m156.46 369.91a16.21 16.21 0 0 0 -9.08-.87c-4.23.82-8.17 2.7-12.33 3.81 3.18 2.83 5.77 6.25 8.72 9.32s6.42 5.84 10.55 6.89 9 0 11.5-3.48l5.26 2.16.84-1.42-6-2.3s-.92-5.48-1.15-6a14.77 14.77 0 0 0 -8.31-8.11z"
            stroke="#263238" stroke-linecap="round" stroke-linejoin="round" />
        <path d="m165.82 385.58s-3.58-2.44-13.83-6.27a145.39 145.39 0 0 1 -14.9-6.27" stroke="#263238"
            stroke-linecap="round" stroke-linejoin="round" />
        <path d="m143.34 372.25 2.72 5.15-3.68 1.34" stroke="#263238" stroke-linecap="round"
            stroke-linejoin="round" />
        <path d="m151.68 373.34 1.12 6.77s-5.34 2-5.76 2.68" stroke="#263238" stroke-linecap="round"
            stroke-linejoin="round" />
        <path d="m159.7 375.53.12 6.82-7.04 3.21" stroke="#263238" stroke-linecap="round"
            stroke-linejoin="round" />
        <path
            d="m87.24 241.46a16.21 16.21 0 0 0 -9.08-.88c-4.22.82-8.17 2.71-12.32 3.82 3.17 2.83 5.76 6.25 8.71 9.31s6.45 5.85 10.55 6.89 9 0 11.51-3.48l5.25 2.17.85-1.43-6-2.29s-.92-5.48-1.15-6a14.74 14.74 0 0 0 -8.32-8.11z"
            stroke="#263238" stroke-linecap="round" stroke-linejoin="round" />
        <path d="m96.61 257.12s-3.58-2.43-13.83-6.26a146.15 146.15 0 0 1 -14.91-6.28" stroke="#263238"
            stroke-linecap="round" stroke-linejoin="round" />
        <path d="m74.12 243.79 2.72 5.15-3.68 1.35" stroke="#263238" stroke-linecap="round"
            stroke-linejoin="round" />
        <path d="m82.46 244.89 1.12 6.77s-5.34 2-5.76 2.68" stroke="#263238" stroke-linecap="round"
            stroke-linejoin="round" />
        <path d="m90.48 247.07.13 6.83-7.05 3.21" stroke="#263238" stroke-linecap="round"
            stroke-linejoin="round" />
        <path
            d="m328 185.47a16.16 16.16 0 0 0 9.09-.63c4-1.5 7.62-4 11.54-5.78-3.6-2.27-6.71-5.22-10.13-7.76s-7.29-4.72-11.53-5.07-8.88 1.51-10.78 5.32l-5.54-1.28-.6 1.55 6.32 1.27s1.8 5.26 2.13 5.78a14.72 14.72 0 0 0 9.5 6.6z"
            stroke="#263238" stroke-linecap="round" stroke-linejoin="round" />
        <path d="m316.14 171.55s3.93 1.81 14.67 3.91a147.9 147.9 0 0 1 15.73 3.75" stroke="#263238"
            stroke-linecap="round" stroke-linejoin="round" />
        <path d="m340.51 181.01-3.53-4.63 3.41-1.93" stroke="#263238" stroke-linecap="round"
            stroke-linejoin="round" />
        <path d="m332.1 181.3-2.22-6.49s4.95-2.82 5.25-3.59" stroke="#263238" stroke-linecap="round"
            stroke-linejoin="round" />
        <path d="m323.83 180.46-1.24-6.71 6.42-4.32" stroke="#263238" stroke-linecap="round"
            stroke-linejoin="round" />
        <path
            d="m158.57 161.36a16.34 16.34 0 0 0 -7.39-5.35c-4.06-1.43-8.41-1.81-12.56-2.95 1.31 4.05 1.8 8.31 2.8 12.44s2.57 8.3 5.6 11.29 7.78 4.53 11.68 2.83l3.43 4.52c.49-.26 1-.53 1.45-.8l-4-5s2-5.18 2.08-5.8a14.8 14.8 0 0 0 -3.09-11.18z"
            stroke="#263238" stroke-linecap="round" stroke-linejoin="round" />
        <path d="m158.7 179.62s-1.85-3.92-8.75-12.41a146.46 146.46 0 0 1 -9.67-13" stroke="#263238"
            stroke-linecap="round" stroke-linejoin="round" />
        <path d="m146.07 156.73-.26 5.82-3.86-.71" stroke="#263238" stroke-linecap="round"
            stroke-linejoin="round" />
        <path d="m152.7 161.9-2.46 6.41s-5.6-1-6.33-.61" stroke="#263238" stroke-linecap="round"
            stroke-linejoin="round" />
        <path d="m158.51 167.85-3.35 5.94-7.69-.8" stroke="#263238" stroke-linecap="round"
            stroke-linejoin="round" />
    </g>
</svg>